<svg width="20" height="20" viewBox="0 0 20 20" fill="none" xmlns="http://www.w3.org/2000/svg">
<path d="M9.04893 3.92682C9.34828 3.00551 10.6517 3.00551 10.951 3.92682L12.0206 7.21862C12.1545 7.63064 12.5384 7.9096 12.9717 7.9096H16.4329C17.4016 7.9096 17.8044 9.14922 17.0207 9.71862L14.2205 11.7531C13.87 12.0077 13.7233 12.4591 13.8572 12.8711L14.9268 16.1629C15.2261 17.0842 14.1717 17.8503 13.3879 17.2809L10.5878 15.2465C10.2373 14.9918 9.76269 14.9918 9.4122 15.2465L6.61203 17.2809C5.82832 17.8503 4.77384 17.0842 5.07319 16.1629L6.14276 12.8711C6.27663 12.4591 6.12997 12.0077 5.77949 11.7531L2.97932 9.71862C2.1956 9.14922 2.59838 7.9096 3.5671 7.9096H7.0283C7.46153 7.9096 7.84548 7.63064 7.97936 7.21862L9.04893 3.92682Z" fill="#FB923C"/>
</svg>
