<svg width="40" height="40" viewBox="0 0 40 40" fill="none" xmlns="http://www.w3.org/2000/svg">
<path d="M20 3.75C16.088 3.75 12.9167 6.92132 12.9167 10.8333C12.9167 14.7454 16.088 17.9167 20 17.9167C23.912 17.9167 27.0833 14.7454 27.0833 10.8333C27.0833 6.92132 23.912 3.75 20 3.75ZM15.4167 10.8333C15.4167 8.30203 17.4687 6.25 20 6.25C22.5313 6.25 24.5833 8.30203 24.5833 10.8333C24.5833 13.3646 22.5313 15.4167 20 15.4167C17.4687 15.4167 15.4167 13.3646 15.4167 10.8333ZM10.7151 7.07077C11.2813 6.67582 11.4202 5.89664 11.0252 5.33042C10.6303 4.7642 9.8511 4.62536 9.28487 5.02031C7.45284 6.29818 6.24999 8.42513 6.24999 10.8333C6.24999 13.4114 7.62812 15.6664 9.68185 16.904C10.2732 17.2603 11.0413 17.0697 11.3976 16.4784C11.7539 15.8871 11.5634 15.119 10.9721 14.7627C9.63787 13.9587 8.74999 12.499 8.74999 10.8333C8.74999 9.27681 9.52465 7.90114 10.7151 7.07077ZM28.9749 5.33042C29.3698 4.7642 30.149 4.62536 30.7152 5.02031C32.5473 6.29818 33.7501 8.42513 33.7501 10.8333C33.7501 13.2414 32.5473 15.3685 30.7152 16.6463C30.149 17.0412 29.3698 16.9024 28.9749 16.3362C28.5799 15.7699 28.7188 14.9907 29.285 14.5958C30.4754 13.7655 31.2501 12.3897 31.2501 10.8333C31.2501 9.27681 30.4754 7.90114 29.285 7.07077C28.7188 6.67582 28.5799 5.89664 28.9749 5.33042ZM23.7328 22.1497C22.7604 22.0833 21.5601 22.0833 20.0456 22.0833H19.9544C18.4399 22.0833 17.2396 22.0833 16.2672 22.1497C15.2739 22.2174 14.4273 22.3586 13.637 22.686C11.6973 23.4894 10.1561 25.0306 9.35264 26.9704C9.02529 27.7607 8.88411 28.6072 8.81633 29.6005C8.74998 30.5729 8.74999 31.7732 8.74999 33.2877V35C8.74999 35.6904 9.30964 36.25 9.99999 36.25H30C30.6903 36.25 31.25 35.6904 31.25 35V33.2877C31.25 31.7733 31.25 30.5729 31.1837 29.6005C31.1159 28.6072 30.9747 27.7607 30.6474 26.9704C29.8439 25.0306 28.3027 23.4894 26.3629 22.686C25.5727 22.3586 24.7262 22.2174 23.7328 22.1497ZM13.637 22.686L16.2672 22.1497L19.9544 22.0833L13.637 22.686ZM14.5938 24.9957C15.0287 24.8155 15.5713 24.703 16.4374 24.6439C17.3147 24.584 18.4298 24.5833 20 24.5833C21.5702 24.5833 22.6853 24.584 23.5626 24.6439C24.4287 24.703 24.9714 24.8155 25.4062 24.9957C26.7334 25.5454 27.7879 26.5999 28.3377 27.9271C28.5178 28.362 28.6304 28.9047 28.6895 29.7707C28.7493 30.648 28.75 31.7631 28.75 33.3333V33.75H11.25V33.3333C11.25 31.7631 11.2507 30.648 11.3105 29.7707C11.3696 28.9047 11.4822 28.362 11.6624 27.9271C12.2121 26.5999 13.2666 25.5454 14.5938 24.9957ZM31.913 23.4924C32.2265 22.8773 32.9792 22.6327 33.5943 22.9462C35.0839 23.7052 36.295 24.9163 37.054 26.4059C37.5221 27.3245 37.7248 28.3306 37.8219 29.5196C37.9169 30.6823 37.9169 32.1248 37.9169 33.945V35C37.9169 35.6904 37.3572 36.25 36.6669 36.25C35.9765 36.25 35.4169 35.6904 35.4169 35V34C35.4169 32.1125 35.4159 30.7721 35.3302 29.7231C35.2457 28.6888 35.0851 28.0484 34.8265 27.5409C34.5744 27.0461 34.2493 26.5961 33.865 26.2047L34.8265 27.5409L32.4593 25.1737C31.8442 24.8603 31.5996 24.1075 31.913 23.4924ZM7.54088 25.1737C8.15599 24.8603 8.40056 24.1075 8.08714 23.4924C7.77372 22.8773 7.021 22.6327 6.40589 22.9462C4.91627 23.7052 3.70518 24.9163 2.9462 26.4059C2.47813 27.3246 2.27545 28.3306 2.17831 29.5196C2.08331 30.6823 2.08332 32.1248 2.08333 33.945V35C2.08333 35.6904 2.64297 36.25 3.33333 36.25C4.02368 36.25 4.58333 35.6904 4.58333 35V34C4.58333 32.1125 4.5843 30.7721 4.67001 29.7232C4.75452 28.6888 4.91515 28.0484 5.17371 27.5409C5.69303 26.5217 6.52169 25.693 7.54088 25.1737Z" fill="white"/>
</svg>
