<svg width="40" height="40" viewBox="0 0 40 40" fill="none" xmlns="http://www.w3.org/2000/svg">
<path fill-rule="evenodd" clip-rule="evenodd" d="M14.1666 27.0418C14.857 27.0418 15.4166 27.6015 15.4166 28.2918V35.0918C15.4166 35.7822 14.857 36.3418 14.1666 36.3418C13.4763 36.3418 12.9166 35.7822 12.9166 35.0918V28.2918C12.9166 27.6015 13.4763 27.0418 14.1666 27.0418Z" fill="white"/>
<path fill-rule="evenodd" clip-rule="evenodd" d="M7.49998 32.0833C8.19034 32.0833 8.74998 32.643 8.74998 33.3333V35.0463C8.74998 35.7367 8.19034 36.2963 7.49998 36.2963C6.80962 36.2963 6.24998 35.7367 6.24998 35.0463V33.3333C6.24998 32.643 6.80962 32.0833 7.49998 32.0833Z" fill="white"/>
<path fill-rule="evenodd" clip-rule="evenodd" d="M20.8333 21.25C21.5237 21.25 22.0833 21.8096 22.0833 22.5V35.0595C22.0833 35.7499 21.5237 36.3095 20.8333 36.3095C20.143 36.3095 19.5833 35.7499 19.5833 35.0595V22.5C19.5833 21.8096 20.143 21.25 20.8333 21.25Z" fill="white"/>
<path fill-rule="evenodd" clip-rule="evenodd" d="M27.5 14.5512C28.1903 14.5512 28.75 15.1108 28.75 15.8012V35.0732C28.75 35.7635 28.1903 36.3232 27.5 36.3232C26.8096 36.3232 26.25 35.7635 26.25 35.0732V15.8012C26.25 15.1108 26.8096 14.5512 27.5 14.5512Z" fill="white"/>
<path fill-rule="evenodd" clip-rule="evenodd" d="M34.1666 7.89225C34.857 7.89225 35.4166 8.4519 35.4166 9.14225V35.0694C35.4166 35.7598 34.857 36.3194 34.1666 36.3194C33.4763 36.3194 32.9166 35.7598 32.9166 35.0694V9.14225C32.9166 8.4519 33.4763 7.89225 34.1666 7.89225Z" fill="white"/>
<path fill-rule="evenodd" clip-rule="evenodd" d="M29.2172 4.11612C29.7054 4.60427 29.7054 5.39573 29.2172 5.88388L6.7172 28.3839C6.22904 28.872 5.43758 28.872 4.94943 28.3839C4.46127 27.8957 4.46127 27.1043 4.94943 26.6161L27.4494 4.11612C27.9376 3.62796 28.729 3.62796 29.2172 4.11612Z" fill="white"/>
<path fill-rule="evenodd" clip-rule="evenodd" d="M18.3333 5C18.3333 4.30964 18.893 3.75 19.5833 3.75H28.3333C29.0237 3.75 29.5833 4.30964 29.5833 5C29.5833 5.69036 29.0237 6.25 28.3333 6.25H19.5833C18.893 6.25 18.3333 5.69036 18.3333 5Z" fill="white"/>
</svg>
