<svg width="40" height="40" viewBox="0 0 40 40" fill="none" xmlns="http://www.w3.org/2000/svg">
<path fill-rule="evenodd" clip-rule="evenodd" d="M5.41666 29.1667C5.41666 26.6355 7.46868 24.5834 9.99999 24.5834C12.5313 24.5834 14.5833 26.6355 14.5833 29.1667C14.5833 31.698 12.5313 33.7501 9.99999 33.7501C7.46868 33.7501 5.41666 31.698 5.41666 29.1667ZM9.99999 27.0834C8.8494 27.0834 7.91666 28.0162 7.91666 29.1667C7.91666 30.3173 8.8494 31.2501 9.99999 31.2501C11.1505 31.2501 12.0833 30.3173 12.0833 29.1667C12.0833 28.0162 11.1505 27.0834 9.99999 27.0834Z" fill="white"/>
<path fill-rule="evenodd" clip-rule="evenodd" d="M24.5833 29.1667C24.5833 26.6355 26.6354 24.5834 29.1667 24.5834C31.6979 24.5834 33.75 26.6355 33.75 29.1667C33.75 31.698 31.6979 33.7501 29.1667 33.7501C26.6354 33.7501 24.5833 31.698 24.5833 29.1667ZM29.1667 27.0834C28.0161 27.0834 27.0833 28.0162 27.0833 29.1667C27.0833 30.3173 28.0161 31.2501 29.1667 31.2501C30.3172 31.2501 31.25 30.3173 31.25 29.1667C31.25 28.0162 30.3172 27.0834 29.1667 27.0834Z" fill="white"/>
<path fill-rule="evenodd" clip-rule="evenodd" d="M0.416656 9.16675C0.416656 8.47639 0.9763 7.91675 1.66666 7.91675H25.8333C26.5237 7.91675 27.0833 8.47639 27.0833 9.16675V29.1667C27.0833 29.8571 26.5237 30.4167 25.8333 30.4167H13.3333C12.643 30.4167 12.0833 29.8571 12.0833 29.1667C12.0833 28.4764 12.643 27.9167 13.3333 27.9167H24.5833V10.4167H2.91666V27.9167H6.66666C7.35701 27.9167 7.91666 28.4764 7.91666 29.1667C7.91666 29.8571 7.35701 30.4167 6.66666 30.4167H1.66666C0.9763 30.4167 0.416656 29.8571 0.416656 29.1667V9.16675Z" fill="white"/>
<path fill-rule="evenodd" clip-rule="evenodd" d="M24.5833 15.0001C24.5833 14.3097 25.143 13.7501 25.8333 13.7501H32.9762C33.3678 13.7501 33.7369 13.9337 33.9731 14.2461L39.3303 21.3294C39.4945 21.5465 39.5833 21.8112 39.5833 22.0834V29.1667C39.5833 29.8571 39.0237 30.4167 38.3333 30.4167H33.176C32.4856 30.4167 31.926 29.8571 31.926 29.1667C31.926 28.4764 32.4856 27.9167 33.176 27.9167H37.0833V22.5029L32.3543 16.2501H27.0833V29.1667C27.0833 29.8571 26.5237 30.4167 25.8333 30.4167C25.143 30.4167 24.5833 29.8571 24.5833 29.1667V15.0001Z" fill="white"/>
</svg>
