<svg width="980" height="655" viewBox="0 0 980 655" fill="none" xmlns="http://www.w3.org/2000/svg">
<path fill-rule="evenodd" clip-rule="evenodd" d="M325.335 116.165C311.103 115.176 282.639 111.652 282.639 111.652L274.128 196.769C274.128 196.769 305.745 199.831 321.553 200.975C344.947 202.668 391.736 205.28 391.736 205.28L394.057 119.39C394.057 119.39 348.242 117.756 325.335 116.165Z" fill="#BFDBFE" stroke="#1B2126" stroke-linecap="round" stroke-linejoin="round"/>
<path fill-rule="evenodd" clip-rule="evenodd" d="M581.301 79.1527L580.527 81.4741H578.979L579.753 89.212V93.8547L573.563 97.7237L572.79 100.045L571.242 102.366V104.688L573.563 105.462L575.111 107.783L574.337 110.878L573.563 113.199L574.337 114.747L573.563 115.521L574.337 117.068L573.563 121.711L577.432 124.806H580.527L582.848 127.128L585.943 127.901L589.038 130.997L591.359 134.092L593.68 135.639H596.775L599.87 138.734L600.644 141.056V147.246H601.418L602.191 149.567L604.513 151.115L602.965 153.436L603.739 158.853L606.06 163.496H610.703L612.25 167.365L658.674 162.722L657.9 159.627L658.674 158.079V155.758L657.127 154.984L656.353 151.889L655.579 147.246V144.151L656.353 141.83V139.508L657.9 136.413L656.353 134.866L657.127 130.223L657.9 127.901L660.221 126.354L658.674 124.032V119.39L660.995 115.521L660.221 113.199L662.543 110.878L663.316 107.009L664.09 103.914L665.638 101.593H664.09L663.316 103.914L661.769 106.235H660.995V108.557L659.448 110.104L660.221 111.652L659.448 112.426H658.674L656.353 113.199L654.805 116.295L653.258 117.842L651.71 120.164L650.163 119.39V117.068L651.71 113.199L653.258 110.878L655.579 109.33V107.783L653.258 106.235L654.805 101.593H654.032L651.71 102.366H650.937L652.484 99.2712L650.937 95.4023L648.615 93.8547H646.294V91.5333L643.973 90.7596L638.557 89.9858L635.462 90.7596L632.367 89.212L622.309 86.8906L613.797 85.343L611.476 82.2479L609.155 81.4741L603.739 79.9265L600.644 81.4741V79.9265L602.191 74.51L600.644 73.7362L596.775 76.0576L594.454 76.8314L589.038 79.9265L584.396 80.7003L581.301 79.1527Z" fill="#BFDBFE" stroke="#1B2126" stroke-linecap="round" stroke-linejoin="round"/>
<path fill-rule="evenodd" clip-rule="evenodd" d="M770.866 254.803V255.577H771.639V257.124H772.413V258.672H773.187L773.96 260.219H776.282L777.055 260.993L779.377 261.767L781.698 259.446L782.472 257.898L785.566 259.446L787.114 257.898H790.209L790.983 256.35L790.209 254.803L791.756 254.029L793.304 254.803L796.399 252.481L797.172 253.255L800.267 250.934L799.494 250.16L801.041 248.613V247.839H799.494V246.291L800.267 243.97L803.362 239.327L804.136 236.232L803.362 235.458L805.684 233.137L804.91 232.363L806.457 230.042V226.946L807.231 226.173H808.778L810.326 227.72H813.421L814.968 226.173V223.851L815.742 223.078V220.756L816.516 219.209L817.29 218.435L819.611 219.209L820.385 216.113H821.932V215.34L823.479 213.792V212.244L825.027 209.923V207.602L825.801 206.054L825.027 204.507L825.801 203.733L835.085 208.376L835.859 203.733V202.185L834.312 201.411L833.538 199.864H832.764L833.538 198.316L830.443 199.09L827.348 197.542L826.574 198.316L825.801 199.864H823.479L822.706 202.185L821.158 202.959H818.837L817.29 200.638V202.959L814.968 205.28H812.647L811.873 206.828L810.326 209.149L807.231 212.244L804.91 201.411L787.888 204.507L784.019 185.162L781.698 186.709L784.019 188.257L783.245 190.578L784.019 192.9L783.245 195.995V199.864L782.472 204.507V207.602L778.603 209.923V212.244L775.508 215.34L773.96 213.792L771.639 215.34V216.887L770.092 217.661L769.318 220.756L768.544 222.304L769.318 223.078V224.625L767.771 226.173H766.997V224.625L765.449 223.851L763.902 225.399L763.128 227.72V229.268L763.902 233.137L762.354 233.911V236.232L757.712 238.553L758.486 240.875L757.712 243.97L760.807 247.065L761.581 248.613L764.676 252.481L768.544 254.803H770.866Z" fill="#BFDBFE" stroke="#1B2126" stroke-linecap="round" stroke-linejoin="round"/>
<path fill-rule="evenodd" clip-rule="evenodd" d="M849.786 212.244L851.334 210.697L849.013 208.375L848.239 209.923L849.013 210.697L849.786 212.244Z" fill="#BFDBFE" stroke="#1B2126" stroke-linecap="round" stroke-linejoin="round"/>
<path fill-rule="evenodd" clip-rule="evenodd" d="M192.886 79.1526V76.8312L193.66 76.0574V74.5098L192.112 71.4147L200.623 18.0232C200.623 18.0232 156.79 10.4283 134.874 6.24398C128.42 5.01181 115.513 1.77368 115.513 1.77368L114.739 3.32126L115.513 7.1902H117.834V10.2854L117.06 13.3805H115.513L114.739 11.8329L113.965 10.2854L111.644 7.1902L110.097 7.96399L111.644 8.73778L113.191 10.2854L111.644 11.0591L109.323 9.51157L107.002 8.73778L107.775 11.0591L111.644 12.6067L113.191 11.0591L114.739 13.3805L112.418 16.4757L113.191 18.797L114.739 23.4398L116.286 24.2136L115.513 21.8922L113.965 18.0232L114.739 15.7019H116.286L117.834 16.4757V19.5708V21.8922L119.381 22.666L117.834 24.9873L115.513 27.3087V29.6301V31.9514L114.739 35.8204L113.191 38.1418L111.644 37.368L109.323 39.6893L108.549 40.4631L106.228 39.6893L104.68 40.4631L102.359 39.6893L103.907 37.368L106.228 35.0466L107.775 35.8204L109.323 34.2728L110.87 36.5942L111.644 31.9514L110.097 31.1777L110.87 28.0825C110.051 28.0825 113.191 28.0825 113.191 28.0825L113.965 25.7611L108.549 28.8563L107.002 29.6301L103.907 31.9514L105.454 33.499H107.002L105.454 34.2728H101.585L102.359 32.7252L105.454 29.6301L107.775 27.3087V24.9873H109.323V26.5349L111.644 24.2136L110.097 19.5708V21.8922L107.775 19.5708L107.002 20.3446L104.68 18.0232H102.359L93.8481 14.9281L90.7532 13.3805L89.2057 11.8329L83.7896 8.73778L82.2421 12.6067V17.2495L84.5633 20.3446L85.337 23.4398L84.5633 29.6301L86.1108 31.9514L85.337 36.5942H87.6582V38.1418L90.7532 39.6893L86.8845 40.4631L86.1108 42.0107L85.337 41.2369V43.5583H88.432L89.9794 45.8796H87.6582L86.8845 48.9748L87.6582 51.2962H85.337L84.5633 49.7486L83.7896 52.8437H85.337L86.8845 53.6175H89.9794L90.7532 54.3913H93.0744L93.8481 56.7127L95.3956 57.4865H97.7168L100.038 59.8078L101.585 63.6768L100.812 69.0933V70.6409L106.228 72.1885L108.549 73.736L113.965 72.1885L116.286 71.4147L120.929 72.1885L124.797 73.736L125.571 76.0574L128.666 75.2836L129.44 76.0574L134.856 75.2836L138.725 76.0574L142.593 75.2836L149.557 74.5098L151.878 73.736L158.842 75.2836L161.163 73.736L192.886 79.1526Z" fill="#BFDBFE" stroke="#1B2126" stroke-linecap="round" stroke-linejoin="round"/>
<path fill-rule="evenodd" clip-rule="evenodd" d="M879.962 69.8673L907.816 62.1294L908.59 62.9032L909.364 64.4508L907.816 67.5459L910.138 70.6411L909.364 71.4149V72.9624L907.043 76.8314L906.269 77.6052H904.722L903.948 79.1527L904.722 81.4741V83.7955V86.8906L903.948 87.6644V90.7596L903.174 92.3072V94.6285L902.4 95.4023L903.174 100.045L903.948 100.819L903.174 103.914L903.948 105.462V107.783L903.174 108.557V110.878L906.269 113.199L893.116 115.521L892.342 114.747L889.247 100.819V99.2713L887.699 97.7237L886.152 99.2713V94.6285L885.378 93.8547V93.0809L884.604 92.3072L883.831 89.9858H883.057V86.1168L883.831 84.5693L882.283 82.2479L881.51 79.1527L880.736 77.6052V73.7362L879.962 72.9624V69.8673Z" fill="#BFDBFE" stroke="#1B2126" stroke-linecap="round" stroke-linejoin="round"/>
<path fill-rule="evenodd" clip-rule="evenodd" d="M876.867 257.124V255.577H877.641V251.708L876.093 249.386H870.677L871.451 251.708L869.13 250.934L867.582 252.481V250.16L863.714 248.613V246.291H861.392H859.071L857.524 244.744L852.108 245.517V243.97L858.297 243.196L859.071 244.744L859.845 242.422L860.619 244.744H863.714H864.487V246.291L869.13 248.613L870.677 247.065L869.13 246.291V244.744L867.582 243.97H865.261L859.845 239.327V237.779L865.261 242.422H867.582L866.035 240.875L866.809 238.553L869.903 240.875L869.13 238.553L866.809 237.006L863.714 236.232L862.166 233.911L859.845 233.137L856.75 230.815L854.429 227.72H852.881L850.56 226.946L851.334 226.173H854.429L859.845 231.589H861.392L864.487 234.684V233.137L866.809 234.684V231.589L866.035 230.042L867.582 229.268L865.261 228.494L862.166 227.72L861.392 226.173L859.071 225.399L857.524 226.173L854.429 225.399L852.108 223.078V221.53L849.786 223.851H846.691V222.304V221.53V216.887L848.239 215.34L849.786 214.566V212.244L849.013 210.697L848.239 209.923H845.918L845.144 208.376H842.049L840.502 206.828L841.275 204.507L838.954 203.733H835.859L835.085 208.376L825.801 203.733L825.027 204.507L825.801 206.054L825.027 207.602V209.923L823.479 212.244V213.792L821.932 215.34V216.113H820.384L819.611 219.209L817.29 218.435L816.516 219.209L815.742 220.756V223.078L814.968 223.851V226.173L813.421 227.72H810.326L808.778 226.173H807.231L806.457 226.946V230.042L804.91 232.363L805.684 233.137L803.362 235.458L804.136 236.232L803.362 239.327L800.267 243.97L799.494 246.291V247.839H801.041V248.613L799.494 250.16L800.267 250.934L797.172 253.255L796.399 252.481L793.304 254.803L791.756 254.029L790.209 254.803L790.983 256.35L790.209 257.898H787.114L785.566 259.446L782.472 257.898L781.698 259.446L779.377 261.767L777.055 260.993L776.282 260.219H773.96L773.187 258.672H772.413V257.124H771.639V255.577H770.866L765.449 262.541L760.033 265.636V267.957L758.486 269.505V271.052L754.617 272.6L753.843 274.921L745.332 279.564L779.377 274.148V274.921L876.867 257.124ZM877.641 224.625V226.173L876.867 226.946L877.641 228.494L876.093 230.815L875.32 233.137V236.232L874.546 239.327L875.32 242.422L876.093 243.196L876.867 240.875V236.232L877.641 233.911L879.962 234.684V230.042L881.51 226.946L880.736 225.399V223.078L877.641 224.625Z" fill="#BFDBFE" stroke="#1B2126" stroke-linecap="round" stroke-linejoin="round"/>
<path fill-rule="evenodd" clip-rule="evenodd" d="M226.93 169.686L213.777 276.469C213.777 276.469 237.413 279.775 249.231 281.041C266.299 282.87 300.435 285.754 300.435 285.754L307.399 199.864L274.128 196.769L276.449 175.876L226.93 169.686Z" fill="#BFDBFE" stroke="#1B2126" stroke-linecap="round" stroke-linejoin="round"/>
<path fill-rule="evenodd" clip-rule="evenodd" d="M404.889 302.778L458.277 303.551V345.336H460.598L465.241 349.979L467.562 349.205H469.109L469.883 347.657L472.978 350.753V353.074H476.847L481.489 354.622L483.81 353.848L486.131 356.169L488.453 354.622H493.095V356.943L495.416 357.717L496.964 360.812L501.606 356.943L502.38 359.264H503.927L506.248 360.812L509.343 359.264L510.891 363.133L513.986 357.717L517.854 360.038L520.176 359.264L521.723 360.812L526.366 362.359H527.913L528.687 360.038L532.555 359.264H534.103L538.745 357.717L541.84 358.491L544.935 356.943L549.578 358.491L551.899 360.812L554.22 362.359L558.862 363.133L561.957 364.681L562.731 363.907H566.6L567.373 364.681V376.288H568.147L568.921 398.728L571.242 401.049L573.563 404.144V407.239L575.111 408.787V409.561L576.658 411.108V413.43L578.206 414.977L578.979 415.751V418.072L579.753 418.846L578.979 419.62V424.263L578.206 426.584L576.658 429.679V432L575.885 433.548L577.432 436.643L576.658 439.738L575.111 441.286L573.563 444.381L572.79 445.929L574.337 448.25H571.242L564.279 452.119H561.184L557.315 452.893L558.862 450.571L559.636 448.25L558.089 447.476L556.541 448.25L554.994 449.798L551.899 449.024L552.673 452.119L554.22 454.44L555.767 455.988L554.994 457.535L551.899 460.631L550.351 459.857L551.125 463.726L546.483 467.595L541.84 470.69L536.424 471.464L535.65 473.011H531.782V471.464L529.46 473.011L527.913 471.464L526.366 469.916L527.139 473.785L524.818 473.011L523.271 471.464L522.497 472.237L524.044 475.333L525.592 476.106L524.044 477.654L527.139 476.88V478.428L523.271 480.749L520.176 476.88L519.402 479.202V483.07L518.628 484.618L517.854 481.523L513.212 484.618L512.438 486.166L513.986 487.713L516.307 486.166L513.212 490.808L507.022 490.035L506.248 491.582L508.57 492.356L511.665 494.677L508.57 502.415L507.022 500.868L504.701 502.415L501.606 499.32L502.38 502.415L501.606 503.189L502.38 503.963L506.248 504.737L507.796 503.963L507.022 509.379L506.248 510.153V514.796H507.796L508.57 519.439L507.796 520.986L510.117 524.855L511.665 528.724L513.212 529.498L512.438 532.593L510.891 534.141L507.796 533.367L504.701 530.272H493.869L490 527.176L485.358 526.403L482.263 523.308H476.847V520.986L475.299 520.212L473.752 514.022L471.43 510.927L469.883 509.379V505.51L468.335 503.189L469.109 501.641V499.32L468.335 496.999L465.241 495.451L461.372 492.356L460.598 490.035L457.503 485.392L455.182 483.844L453.635 481.523L452.087 476.106L449.766 473.011L448.992 470.69L446.671 467.595V463.726L444.35 462.178V460.631L438.934 457.535V455.988L435.839 455.214V452.893H434.291L431.97 449.024H426.554L421.911 448.25H418.043L414.948 446.702L413.4 449.024L407.984 449.798L404.889 454.44L404.116 458.309L402.568 460.631L398.699 464.5V466.047L394.057 464.5L391.736 462.178H388.641L386.32 459.083L382.451 458.309L377.809 453.667L375.487 452.893L373.166 450.571L372.392 447.476L370.845 444.381L370.071 442.06L370.845 439.738L367.75 434.322V432L365.429 428.131L361.56 425.036L358.465 424.263L354.597 419.62V418.072L351.502 415.751L348.407 412.656L346.085 411.108L343.764 409.561L341.443 407.239V404.144L339.896 403.37L338.348 402.596L336.027 400.275V397.954L401.794 401.049L404.889 302.778Z" fill="#BFDBFE" stroke="#1B2126" stroke-linecap="round" stroke-linejoin="round"/>
<path fill-rule="evenodd" clip-rule="evenodd" d="M632.367 328.313L738.369 315.932V310.516L739.142 309.742L742.237 310.516L743.011 305.873L747.653 302.004H751.522L756.938 295.814H760.033L760.807 291.945H762.354L763.128 289.623L765.449 288.849L766.223 290.397H767.771L769.318 286.528L773.187 285.754L774.734 286.528L777.055 281.112L778.603 279.564H779.377V274.147L745.332 279.564L743.785 281.112L672.601 288.076H667.959L668.733 290.397V291.945L644.747 294.266L643.973 295.04L642.426 293.492V295.04L643.199 298.135H641.652L642.426 300.456H640.878L642.426 302.778L640.878 303.551L640.104 305.873L641.652 306.647L642.426 307.42H640.104V308.968L640.878 309.742L637.009 312.063L637.783 315.158V316.706H636.236L635.462 319.801L634.688 322.122L636.236 325.218H633.915L632.367 328.313Z" fill="#BFDBFE" stroke="#1B2126" stroke-linecap="round" stroke-linejoin="round"/>
<path fill-rule="evenodd" clip-rule="evenodd" d="M765.449 310.515L760.033 312.837L758.486 315.158L756.164 319.801L760.033 321.349L760.807 322.122L763.128 323.67L766.223 322.896V325.217L768.544 326.765L769.318 329.086L770.092 329.86L772.413 331.408L773.187 333.729H774.734L775.508 335.277L779.377 336.824L781.698 340.693H784.019L786.34 343.015V344.562L788.661 345.336V346.884L790.209 347.657V349.205H792.53L796.399 351.526V353.074L797.946 355.395L798.72 358.49L799.494 360.038H801.815L802.589 361.586L804.91 364.681V367.776L806.457 370.097L807.231 369.323H808.778H810.326L811.1 367.002V364.681L812.647 366.228L810.326 362.359L808.778 359.264L809.552 358.49L811.873 362.359L813.421 363.133L812.647 360.038L814.195 361.586L814.968 363.907L816.516 362.359L815.742 360.038L814.195 359.264L812.647 358.49L815.742 357.717L818.063 358.49L819.611 356.943V355.395H821.932L824.253 353.848L825.801 352.3L824.253 350.753V349.205H825.801L826.574 350.753L828.122 349.205L829.669 347.657V344.562L831.217 343.788L832.764 344.562L834.312 342.241L833.538 340.693L836.633 339.146L834.312 338.372V336.051L835.859 333.729V337.598L838.18 330.634L840.502 326.765L844.37 322.896L821.932 306.647L801.815 309.742L801.041 306.647L797.946 304.325L796.399 305.873L795.625 303.551L772.413 306.647L769.318 308.194L766.997 308.968L766.223 310.515H765.449Z" fill="#BFDBFE" stroke="#1B2126" stroke-linecap="round" stroke-linejoin="round"/>
<path fill-rule="evenodd" clip-rule="evenodd" d="M428.301 163.32C416.628 163.121 393.283 161.948 393.283 161.948L394.057 119.39H394.831L395.604 100.045C395.604 100.045 438.71 100.819 460.598 100.819C477.913 100.819 513.212 100.045 513.212 100.045L512.438 102.366L510.891 104.688L508.57 106.235L510.891 110.878L513.986 111.652L515.533 113.973L516.307 151.889H513.986V153.436L515.533 154.984L514.76 157.305L516.307 158.853L515.533 165.043L513.986 167.365L516.307 172.781H514.76L513.212 170.46V168.912H510.891L510.117 168.138L507.796 167.365H505.475L503.153 165.043L499.285 165.817H493.869L492.321 167.365H490L483.81 163.496C483.81 163.496 446.804 163.637 428.301 163.32Z" fill="#BFDBFE" stroke="#1B2126" stroke-linecap="round" stroke-linejoin="round"/>
<path fill-rule="evenodd" clip-rule="evenodd" d="M920.196 125.58L923.291 136.413V139.508L924.839 138.734L926.386 137.187H928.707V135.639V134.092L927.934 132.544L928.707 130.997H927.16L927.934 129.449L927.16 127.901L927.934 127.128V125.58H927.16L926.386 123.259L920.196 125.58Z" fill="#BFDBFE" stroke="#1B2126" stroke-linecap="round" stroke-linejoin="round"/>
<path d="M977.022 608.115L977.72 608.636L977.629 608.723L977.215 608.822L977.558 609.007L977.175 609.174L976.825 609.209L976.555 609.093L976.337 608.832L976.072 608.929L976.657 609.455L976.838 609.748V610.19L976.015 609.564L973.91 608.673L973.866 608.523L974.788 608.19L975.941 608.007L977.022 608.115ZM979 615.744L978.779 615.994L977.751 616.299L977.533 616.483L977 617.237L976.879 617.529L976.614 617.629L976.172 617.433L975.658 617.757L975.062 618.321L972.356 620.081L971.866 620.598L970.997 620.629L969.873 621.193L968.72 621.423L967.736 620.529L968.321 620.289L968.508 620.255L969.234 619.916L969.888 619.361L970.415 618.707L970.789 618.069L971.081 617.757L973.91 616.181L974.421 616.09L975.885 616.056L977.906 615.405L978.474 615.424L979 615.744ZM908.331 624.526L912.574 623.972L916.315 622.096L916.873 621.978L918.471 621.981L919.038 621.807L920.402 620.975L922.477 620.041L923.524 619.788L924.642 619.819L925.224 619.474L927.657 618.651L929.308 618.567L932.293 616.795L935.563 616.645L937.102 615.517L939.326 615.442L939.632 614.991L940.152 614.891L940.544 615.143L940.75 615.311L941.127 615.333L941.419 615L941.572 614.501L941.987 614.477L942.058 615.059L942.924 615.184L943.177 615.517L943.6 615.925L944.177 615.744L945.288 614.935L945.177 614.648L944.522 614.769L943.721 614.685L942.986 614.33L942.342 614.022L945.108 613.922L945.759 613.822L946.248 613.791L946.899 613.716L947.341 613.259L947.497 612.636L948.413 612.52L950.313 612.389L950.771 611.798L951.242 611.72L951.84 611.897L953.139 611.723L953.936 611.851L954.877 612.327L955.22 611.994L955.359 611.495H955.612L955.721 611.67L955.612 611.981L955.568 612.327L955.83 612.156L956.169 611.841L956.347 611.611L957.322 612.321L958.079 612.427L958.437 611.882L959.745 612.327L961.116 612.025L961.605 611.315L961.811 610.922L962.042 610.607L962.369 610.573L962.49 610.829L962.827 612.925L963.337 614.589L963.677 615L963.68 615.545L964.063 615.723L964.409 615.744L964.842 615.299L964.863 615.698L965.088 615.941L965.758 616.408L965.456 616.825L965.53 617.181L965.203 617.337L964.63 616.891L964.21 617.04V617.495L964.783 617.879L964.518 618.308L964.048 618.402L963.297 618.293L962.711 618.763L962.151 619.33L961.466 619.788L960.954 620.289L960.518 621.165L959.927 623.716L960.204 624.8L959.927 625.673L959.774 625.869L958.983 626.377L958.864 626.685L959.659 627.71L959.179 628.641L958.067 630.031L956.347 631.417L955.488 631.691L954.575 631.834L953.765 632.028L953.335 632.305L952.382 633.13L952.132 633.261L950.961 633.632L950.248 634.112L948.454 636.086L947.98 636.292L947.582 636.423L947.217 636.576L946.98 636.881L946.728 636.697L946.65 636.626L946.557 636.445L946.927 636.167L946.958 635.924L946.719 635.744L946.258 635.625L945.759 636.554L945.386 636.828L944.791 636.868L943.71 637.136L943.314 637.177L943.04 637.012L942.803 636.803L942.529 636.635L941.956 636.554L941.601 636.607L941.003 636.868L940.18 637.364L939.367 638.491L938.563 638.688L937.629 638.364L936.76 637.85L935.966 637.676L935.314 638.077L934.8 638.329L934.467 638.688L933.953 638.99L932.732 639.498L932.402 639.844L932.118 640.227L931.695 640.473L930.988 640.401L930.776 640.654L930.536 640.85L930.121 640.485L929.461 640.684L927.991 641.439L927.667 641.448L926.384 641.408L924.826 641.949L924.661 641.398L924.268 641.339L923.801 641.653L923.424 642.121L923.524 642.398L924.053 642.211L923.813 642.962L923.199 643.644L922.421 644.196L921.676 644.597L920.465 644.971L919.926 645.23L919.486 645.339L919.29 645.426L919.191 645.625L919.222 645.927L919.337 646.323L918.596 646.485L917.929 646.279L916.752 645.653L915.957 645.871L915.07 646.039L914.144 646.358L913.543 646.376L913.176 647.011L912.674 647.566L912.148 647.887L911.674 647.98L910.316 648.298L909.329 648.117L909.026 648.575L909.599 649.41L909.186 649.516L908.344 648.856L908.023 648.566L907.649 647.445L908.413 646.706L908.631 646.485L908.958 646.264L909.186 646.015L909.216 645.669L908.989 645.497L908.556 645.426L908.073 645.691L907.522 645.638L907.291 644.903L907.413 644.432L907.699 644.04L907.403 643.691L907.03 643.089L907.291 642.551L906.818 641.255L906.721 639.685L906.905 639.267L907.123 638.856L907.179 638.339L906.777 637.99L906.154 637.731L904.89 636.034L904.294 635.423L903.372 635.554L902.637 635.607L901.644 634.632L901.055 634.186L900.522 633.579L900.494 633.292L901.463 632.595L902.21 631.922L902.818 631.383L903.242 630.862L903.927 629.797L903.681 628.888L903.027 628.352L902.637 627.364L903.017 626.199L904.721 625.028L906.762 624.401L908.331 624.526ZM881.772 653.56L881.442 653.725L881.068 653.809L880.856 653.756L880.495 653.476L879.212 653.229L878.775 652.787L878.831 652.117L879.196 651.725L881.377 650.94L881.623 650.921L882.187 651.183L882.305 651.451L882.165 651.784L882.025 652.625L881.909 652.849L881.844 653.061L881.909 653.407L881.772 653.56Z" fill="#BFDBFE" stroke="#1B2126" stroke-linecap="round" stroke-linejoin="round"/>
<path fill-rule="evenodd" clip-rule="evenodd" d="M779.377 156.532L784.019 185.162L787.888 204.507L866.809 189.031L867.582 186.709L869.13 185.162H872.998L873.772 183.614L876.093 182.067V180.519L881.51 175.876V174.329L876.867 171.234H875.32L874.546 168.138L872.225 168.912L871.451 165.817L872.225 163.496L872.998 161.948L871.451 160.401V158.853L872.998 157.305L874.546 154.21V152.663L876.867 150.341L875.32 148.794H872.998H870.677L869.13 146.472V144.925V142.603L866.809 141.056L865.261 141.83L864.487 140.282L862.166 139.508L791.756 154.21L790.983 148.794L779.377 156.532Z" fill="#BFDBFE" stroke="#1B2126" stroke-linecap="round" stroke-linejoin="round"/>
<path fill-rule="evenodd" clip-rule="evenodd" d="M178.185 162.722L184.375 124.032L185.922 120.937V118.616L187.47 117.068L185.922 115.521L182.828 114.747L183.601 110.104L187.47 105.461L190.565 102.366L191.339 100.045L194.434 95.4021L195.207 93.8545L199.076 89.2117L198.302 85.3428L193.66 81.4739V79.1525L161.163 73.736L158.842 75.2835L151.878 73.736L149.557 74.5098L142.593 75.2835L138.725 76.0573L134.856 75.2835L129.44 76.0573L128.666 75.2835L125.571 76.0573L124.797 73.736L120.929 72.1884L116.286 71.4146L108.549 73.736L106.228 72.1884L100.812 70.6408V69.0932L101.585 63.6767L100.038 59.8078L97.7168 57.4864L95.3956 58.2602H93.0744L92.3006 55.9388L89.2057 56.7126L87.6582 55.9388L86.8845 57.4864L84.5633 55.165V59.034L83.0158 60.5816V63.6767L83.7896 65.2243L82.2421 66.7719L83.0158 69.867H81.4684L76.826 83.0214L76.0522 85.3428L76.826 86.8904L76.0522 88.438L75.2785 89.9855V91.5331L73.731 93.0807L72.1836 100.045L70.6361 103.914L71.4098 105.461L69.8624 106.235L67.5412 110.104H69.0886V112.425L67.5412 111.652L65.9937 113.973L65.2199 112.425L62.8987 117.842L60.5775 122.485L61.3513 125.58L60.5775 130.223L59.8038 134.865V137.96L61.3513 141.056L129.44 154.984L178.185 162.722Z" fill="#BFDBFE" stroke="#1B2126" stroke-linecap="round" stroke-linejoin="round"/>
<path fill-rule="evenodd" clip-rule="evenodd" d="M406.437 291.171C406.437 291.171 454.124 292.466 477.967 292.34C502.869 292.208 552.672 290.397 552.672 290.397L553.446 302.004L557.315 324.444L558.862 363.133L554.22 362.359L551.899 360.812L549.577 358.49L547.256 357.717L544.935 356.943L541.84 358.49L538.745 357.717L534.103 359.264H532.555L528.687 360.038L527.913 362.359H526.365L524.044 361.586L521.723 360.812L520.176 359.264L517.854 360.038L513.986 357.717L510.891 363.133L509.343 359.264L506.248 360.812L503.927 359.264H502.38L501.606 356.943L496.964 360.812L495.416 357.717L493.095 356.943V354.621H488.452L486.131 356.169L483.81 353.848L481.489 354.621L476.846 353.074H472.978V350.752L469.883 347.657L469.109 349.205H467.562L465.24 349.979L462.919 347.657L460.598 345.336H458.277V303.551L406.437 302.778V291.171Z" fill="#BFDBFE" stroke="#1B2126" stroke-linecap="round" stroke-linejoin="round"/>
<path fill-rule="evenodd" clip-rule="evenodd" d="M710.514 173.555L717.478 229.268L719.025 227.72L721.346 229.268L722.894 227.72L724.441 229.268H725.989L728.31 233.91L730.631 234.684L734.5 233.91L736.821 236.232L738.369 237.006L739.916 234.684H743.011L744.559 236.232L745.332 235.458H747.653L748.427 233.91L751.522 231.589L753.07 235.458L756.165 236.232L757.712 238.553L759.259 237.779L762.354 236.232V233.91L763.902 233.137L763.128 229.268V227.72L763.902 225.399L765.449 223.851L766.997 224.625V226.172H767.771L769.318 224.625V223.077L768.544 222.304L769.318 220.756L770.092 217.661L771.639 216.887V215.339L773.96 213.792L775.508 215.339L778.603 212.244V209.923L782.471 207.602V204.506L783.245 199.864V195.995L784.019 192.9L783.245 190.578L784.019 188.257L781.698 186.709L784.019 185.162L779.377 156.531L766.997 164.269L761.581 170.46L759.259 171.233H756.165L753.07 172.781L750.748 173.555L749.975 175.102L745.332 174.329H743.785L742.237 175.102L739.916 174.329L744.559 172.007H743.011L741.464 172.781L737.595 171.233L733.726 170.46L732.179 169.686L710.514 173.555Z" fill="#BFDBFE" stroke="#1B2126" stroke-linecap="round" stroke-linejoin="round"/>
<path fill-rule="evenodd" clip-rule="evenodd" d="M455.182 100.819C435.206 100.819 395.604 100.045 395.604 100.045L397.152 36.5944C397.152 36.5944 426.295 37.5857 440.867 37.6944C460.855 37.8436 500.832 37.3681 500.832 37.3681L503.153 43.5585L502.38 45.8798V54.3915L507.022 65.2245L507.796 69.0935V75.2838L508.57 79.1527V80.7003L509.343 86.1168L510.117 89.212L512.438 92.3072L513.212 100.045C513.212 100.045 474.408 100.819 455.182 100.819Z" fill="#BFDBFE" stroke="#1B2126" stroke-linecap="round" stroke-linejoin="round"/>
<path fill-rule="evenodd" clip-rule="evenodd" d="M779.377 274.921L876.867 257.124L879.962 260.219L883.057 264.862L879.188 261.767L879.962 264.088L876.093 261.767L874.546 262.541L878.414 264.862L876.867 265.636L873.772 264.862L876.093 267.183L871.451 264.862V266.41L873.772 267.957L871.451 269.505H868.356L867.582 266.41V263.314H866.035V267.957L867.582 270.279V272.6L871.451 271.826L872.998 270.279L874.546 271.826L876.867 271.052L878.414 268.731L879.962 271.052L879.188 273.374L880.736 274.147L879.188 275.695H881.509L882.283 272.6L881.509 270.279H883.831L884.604 268.731L886.152 271.826V274.147V276.469L884.604 275.695L883.831 276.469L882.283 281.112L880.736 282.659H877.641L876.093 281.112L874.546 282.659L873.772 281.112L875.32 279.564L870.677 280.338L872.225 282.659H867.582L864.487 281.885L866.035 284.207L870.677 284.981H875.32V286.528L872.225 288.076L874.546 288.849L872.225 291.945H869.903L865.261 289.623L868.356 293.492L871.451 294.266H872.998L874.546 291.945L876.093 293.492L879.962 291.171L876.867 297.361L874.546 295.814L872.225 297.361L868.356 299.683L866.035 298.135V300.456L863.714 303.551L862.94 300.456H861.392L862.166 302.004L861.392 302.778L862.94 304.325L859.845 306.647L857.524 310.516L855.976 314.385V316.706L854.429 313.611V320.575H849.013H848.239L846.691 322.122L844.37 322.896L821.932 306.647L801.815 309.742L801.041 306.647L797.946 304.325L796.399 305.873L795.625 303.551L772.413 306.647L766.997 308.968L766.223 310.516H765.449L760.033 312.837L738.369 315.932V310.516L739.142 309.742L742.237 310.516L743.011 305.873L747.653 302.004H751.522L756.938 295.814H760.033L760.807 291.945H762.354L763.128 289.623L765.449 288.849L766.223 290.397H767.77L769.318 286.528L773.187 285.754L774.734 286.528L777.055 281.112L778.603 279.564H779.377V274.921Z" fill="#BFDBFE" stroke="#1B2126" stroke-linecap="round" stroke-linejoin="round"/>
<path fill-rule="evenodd" clip-rule="evenodd" d="M178.773 163.139C194.826 165.58 226.93 169.686 226.93 169.686L211.456 292.718L210.682 294.266L209.135 297.361H206.813L206.04 294.266L204.492 295.04L202.171 293.492L199.076 295.04L198.302 298.135L199.076 300.456L198.302 302.004L199.076 305.873L198.302 308.194L199.076 312.063V315.158L197.528 315.932V319.027L117.834 217.661L129.44 154.984C129.44 154.984 162.587 160.679 178.773 163.139Z" fill="#BFDBFE" stroke="#1B2126" stroke-linecap="round" stroke-linejoin="round"/>
<path fill-rule="evenodd" clip-rule="evenodd" d="M790.983 148.794L791.756 154.21L862.166 139.508L864.487 140.282L865.261 141.83L866.809 141.056L869.13 142.603V146.472L870.677 148.794H875.32L876.867 150.341L890.794 154.984V154.21L890.021 151.889L888.473 150.341V148.02H889.247L890.021 149.568L890.794 151.115L891.568 151.889L892.342 158.079L894.663 155.758L895.437 154.21L893.889 151.889L896.984 148.02L895.437 146.472L893.116 130.997H892.342L893.116 115.521L892.342 114.747L889.247 100.819V99.2713L887.699 97.7237L886.926 98.4975L886.152 99.2713V97.7237V94.6286L885.378 93.8548V93.081L884.604 92.3072L883.831 89.9858H883.057V86.1169L883.831 84.5693L882.283 82.2479L881.51 79.1528L880.736 77.6052V75.2838V73.7363L879.962 72.9625V69.8673L858.297 75.2838H855.976L852.108 78.379L850.56 80.7004L845.918 86.8907L845.144 88.4382V90.7596L842.823 93.081L837.407 98.4975L838.18 99.2713H840.502H842.049L842.823 100.045L842.049 101.593L840.502 103.914H839.728L841.275 105.462V107.009L842.823 107.783L842.049 108.557V110.104L840.502 110.878H838.954L835.859 114.747L835.085 116.295L831.991 117.842L831.217 118.616H828.896H826.574L825.027 119.39L821.932 120.937H820.385L818.837 119.39L811.873 120.164L810.326 120.937H807.231L797.946 124.806L798.72 126.354V127.901V128.675H801.815V130.223L801.041 131.77L802.589 133.318V134.866L801.041 137.187L799.494 140.282L796.399 142.603L794.851 144.925L790.983 148.794ZM890.021 162.722L889.247 163.496L888.473 165.817L890.021 165.043L890.794 163.496L890.021 162.722ZM891.568 161.948V162.722L892.342 163.496L893.115 162.722L893.889 161.948L894.663 161.174L896.21 161.948L896.984 161.174L903.174 158.079H905.495V156.532H907.043L910.138 154.21L914.006 153.437L914.78 151.889L914.006 151.115L913.233 151.889L912.459 151.115L915.554 147.246L914.78 146.472L911.685 150.341L910.911 151.115L907.043 151.889H905.495L904.721 152.663H903.948V153.437L900.853 154.21L900.079 154.984L898.532 154.21V155.758L897.758 154.984L896.984 155.758V157.305L895.437 158.079L894.663 158.853H893.115L892.342 159.627L891.568 161.948ZM915.554 150.341V151.115H916.328L918.649 149.568L919.422 148.02H920.97L923.291 145.699L920.196 147.246H919.422H918.649L917.101 148.02L916.328 148.794L915.554 150.341Z" fill="#BFDBFE" stroke="#1B2126" stroke-linecap="round" stroke-linejoin="round"/>
<path fill-rule="evenodd" clip-rule="evenodd" d="M300.435 285.754C300.435 285.754 328.479 288.166 342.5 288.985C363.812 290.229 406.437 291.945 406.437 291.945V302.778H404.889L401.794 401.049L336.027 397.954V400.275L338.348 402.596L306.625 400.275L305.851 410.334L290.377 408.787L300.435 285.754Z" fill="#BFDBFE" stroke="#1B2126" stroke-linecap="round" stroke-linejoin="round"/>
<path fill-rule="evenodd" clip-rule="evenodd" d="M876.867 150.341L890.794 154.984L891.568 155.758L890.794 158.853V161.174L889.247 161.948L888.473 163.496L887.699 165.817L888.473 167.365L891.568 168.139H893.115L893.889 172.008L893.115 175.876V178.198V180.519L892.342 181.293L893.115 182.841L892.342 185.936L891.568 186.71H890.021L891.568 189.031H890.021V190.578L890.794 191.352H889.247L888.473 192.9L886.926 193.674L888.473 194.447L886.926 197.543V198.316L886.152 199.09V200.638L884.604 202.185V200.638V196.769H883.057H881.509L879.962 197.543L879.188 195.995H876.867L876.093 194.447H874.546L872.225 192.9V190.578L871.451 189.805L872.225 187.483V185.936H872.998L874.546 183.614L876.093 182.067V180.519L881.509 175.876V174.329L876.867 171.234H875.32L874.546 168.139L872.225 168.912L871.451 165.817L872.225 163.496L872.998 161.948L871.451 160.401V158.853L872.998 157.306L874.546 154.21V152.663L876.867 150.341Z" fill="#BFDBFE" stroke="#1B2126" stroke-linecap="round" stroke-linejoin="round"/>
<path fill-rule="evenodd" clip-rule="evenodd" d="M906.269 113.199L922.517 109.33L924.839 108.556L926.386 105.461H927.16L927.934 103.914L929.481 103.14H931.028V100.819L931.802 99.271L928.707 97.7234V95.4021L925.612 93.8545V91.5331L924.065 87.6642L913.233 55.165L912.459 56.7126L910.138 55.9388L909.364 56.7126V58.2602L908.59 60.5816V62.9029L909.364 64.4505L907.816 67.5457L910.138 70.6408L909.364 71.4146V72.9622L907.043 76.8311L906.269 77.6049H904.722L903.948 79.1525L904.722 81.4739V86.8904L903.948 87.6642V90.7593L903.174 92.3069V94.6283L902.4 95.4021L903.174 100.045L903.948 100.819L903.174 103.914L903.948 105.461V107.783L903.174 108.556V110.878L906.269 113.199Z" fill="#BFDBFE" stroke="#1B2126" stroke-linecap="round" stroke-linejoin="round"/>
<path fill-rule="evenodd" clip-rule="evenodd" d="M425.006 205.28V227.72C425.006 227.72 455.855 228.071 471.279 227.86C493.51 227.555 537.972 226.173 537.972 226.173L536.424 224.625V223.077L534.877 220.756L532.555 219.208L531.008 215.34L529.46 214.566V211.471L527.913 209.923V206.828V200.638L526.365 199.09L527.913 198.316L525.592 196.769V194.447L523.271 192.126L524.044 187.483L522.497 185.936V183.614L520.949 182.84L520.176 180.519L518.628 179.745V176.65L517.854 172.781H514.759L513.212 170.46V168.912H510.891L510.117 168.138L507.796 167.365H505.475L503.153 165.043L499.285 165.817H497.737H493.869L492.321 167.365H490L483.81 163.496C483.81 163.496 445.886 163.621 426.924 163.297C415.711 163.105 393.283 161.948 393.283 161.948L391.736 205.28H425.006Z" fill="#BFDBFE" stroke="#1B2126" stroke-linecap="round" stroke-linejoin="round"/>
<path fill-rule="evenodd" clip-rule="evenodd" d="M337.096 117.169C355.309 118.425 394.831 119.39 394.831 119.39L397.152 36.5942C397.152 36.5942 368.643 35.6079 338.386 33.4555C320.292 32.1683 301.573 29.9671 287.951 28.6917C263.742 26.4252 215.324 20.3446 215.324 20.3446L212.229 39.6893L215.324 44.3321L216.872 48.201L216.098 49.7486L216.872 52.0699H216.098L219.193 55.9389L221.514 57.4865L226.93 64.4506L226.157 65.9981L229.252 69.0933H230.799V71.4147H235.441L232.347 80.7001L230.799 81.4739L231.573 87.6642L229.252 88.438V93.0807L232.347 96.1759L238.536 91.5332L240.084 94.6283L241.631 100.819L244.726 107.009L243.953 110.104L246.274 112.425H248.595L250.142 118.616L253.237 121.711L254.785 119.39L260.201 120.937L261.748 118.616L268.712 119.39L269.486 120.163H274.128L275.676 117.068H277.223L281.092 122.485L281.866 121.711L282.639 111.652C282.639 111.652 317.912 115.846 337.096 117.169Z" fill="#BFDBFE" stroke="#1B2126" stroke-linecap="round" stroke-linejoin="round"/>
<path fill-rule="evenodd" clip-rule="evenodd" d="M557.288 212.211C548.012 212.738 529.46 213.018 529.46 213.018V214.566L531.008 215.339L532.555 219.208L534.877 220.756L536.424 223.077V224.625L537.972 226.173L541.84 228.494L543.388 227.72L544.935 228.494L545.709 230.815L544.161 231.589L543.388 233.137L541.84 235.458L543.388 237.006L545.709 238.553V240.101L547.256 242.422H549.578L551.125 243.196L552.672 290.397L553.446 301.23L631.593 295.814L633.915 298.135V299.682L630.046 305.099L629.272 305.873V306.647V307.42L640.104 305.873L640.878 303.551L642.426 302.778L640.878 300.456H642.426L641.652 298.135H643.199L642.426 295.04V293.492L643.973 295.04L644.747 294.266L645.521 291.945V291.171L647.842 292.718L648.616 290.397L649.389 288.076L648.616 286.528L649.389 283.433H647.842L646.294 281.885V283.433L643.973 282.659V281.112L641.652 278.016V277.243L642.426 274.921V274.147L640.878 272.6V269.505L637.783 267.957L636.236 265.636H635.462L632.367 264.088L630.82 263.314L624.63 258.672V255.576L626.951 249.386V247.065L627.725 245.517L625.403 243.196H622.309L619.987 245.517L618.44 243.97L616.892 240.101V237.779L615.345 235.458L610.703 233.137L609.929 231.589L605.286 227.72L604.513 226.173L603.739 224.625L602.965 223.077L601.418 218.435L602.191 215.339L602.965 213.792L597.549 209.149C597.549 209.149 570.708 211.448 557.288 212.211Z" fill="#BFDBFE" stroke="#1B2126" stroke-linecap="round" stroke-linejoin="round"/>
<path fill-rule="evenodd" clip-rule="evenodd" d="M669.506 324.444L670.28 325.991L671.827 326.765V380.157V393.311L676.47 424.262L675.696 426.584L672.601 425.036L671.827 425.81H669.506L666.411 424.262L663.316 426.584L660.995 428.131L658.674 426.584V428.131L657.9 430.453L654.032 431.227V429.679L652.484 425.81L650.163 423.489L649.389 421.167L650.163 415.751V414.203L615.345 417.298V414.203L614.571 411.108H616.119L616.892 409.56L616.119 406.465L617.666 404.144L619.214 398.727L623.856 394.859L623.082 391.763H623.856L625.403 387.121L622.309 384.799V382.478L620.761 380.157L622.309 379.383L621.535 378.609L620.761 377.061L622.309 374.74L619.987 373.192V370.871L621.535 369.323L619.987 367.002V363.133L618.44 361.586L619.987 360.038L618.44 358.49L620.761 355.395L619.987 351.526L623.082 349.979L623.856 349.205L622.309 347.657L625.403 344.562V343.015L627.725 341.467V334.503H630.046V332.182L632.367 330.634V328.313L669.506 324.444Z" fill="#BFDBFE" stroke="#1B2126" stroke-linecap="round" stroke-linejoin="round"/>
<path fill-rule="evenodd" clip-rule="evenodd" d="M600.644 147.246L516.307 151.889L515.533 113.973L513.986 111.652L510.891 110.878L508.57 106.235L510.891 104.688L512.438 102.366L513.212 100.045L512.438 92.3071L510.117 89.2119L509.343 86.1168L508.57 80.7003V79.1527L507.796 75.2838V69.0934L507.022 64.4507L502.38 54.3915V45.8798L503.154 43.5584L500.832 37.3681L532.555 35.8205V28.0826L535.65 28.8564L537.198 31.1778L538.745 35.8205V38.9157L541.066 41.237H545.709L546.483 42.0108L552.672 42.7846L553.446 45.106L555.767 44.3322H558.862L559.636 42.7846L561.957 42.0108H566.6L568.147 42.7846H571.242V44.3322H569.695L570.468 45.106H573.563L574.337 48.2011L575.885 48.9749L576.658 49.7487L577.432 46.6536H580.527L581.301 48.9749H582.848H585.169L585.943 51.2963H587.491L588.264 52.8439L592.133 51.2963L593.68 50.5225L598.323 47.4274L600.644 50.5225L603.739 49.7487L610.703 48.9749L613.024 51.2963L614.571 50.5225H617.666L612.25 54.3915L603.739 57.4866L598.323 62.1293L592.133 69.0934L585.943 75.2838L582.074 77.6051L581.301 79.9265L580.527 81.4741H578.979L579.753 89.2119V93.8547L577.432 95.4023L573.563 97.7236L572.79 100.045L571.242 102.366V104.688L573.563 105.462L575.111 107.783L574.337 110.878L573.563 113.199L574.337 114.747L573.563 115.521L574.337 117.068L573.563 121.711L577.432 124.806H580.527L582.848 127.128L585.943 127.901L589.038 130.997L591.359 134.092L593.68 135.639H596.775L599.87 138.734L600.644 141.056V147.246Z" fill="#BFDBFE" stroke="#1B2126" stroke-linecap="round" stroke-linejoin="round"/>
<path fill-rule="evenodd" clip-rule="evenodd" d="M677.244 176.65L710.514 172.007V173.555L732.179 169.686V167.365L735.274 163.496V158.079L736.821 154.984L739.142 154.21L738.369 151.115L740.69 149.568L739.916 148.02L741.464 147.246L743.785 149.568L745.332 140.282L742.237 136.413L739.916 128.675L737.595 122.485L736.048 119.39H732.953L729.858 121.711H728.31L725.989 127.901H724.442L723.668 130.223H721.347L717.478 129.449L718.252 123.259L721.347 121.711L722.894 120.164V117.068L724.442 115.521L725.989 113.973L725.215 105.462L723.668 102.366L721.347 100.819L722.12 98.4975L724.442 99.2713L722.894 96.9499H721.347V93.8548H718.252L715.93 93.081L713.609 92.3072H708.967L708.193 89.9858L705.872 89.212H703.551L698.908 87.6645L696.587 89.212L694.266 91.5334V93.8548L695.04 94.6286L698.135 95.4024L697.361 96.1762L692.718 97.7237L690.397 99.2713L691.171 103.14V107.783L689.623 110.878L688.076 110.104L687.302 108.557V104.688V101.593L684.981 106.235L684.207 107.783H682.66L680.339 109.331L681.112 111.652L678.017 113.199L679.565 115.521V120.937L678.017 124.033L675.696 127.128L678.017 130.223V132.544L676.47 135.639L678.017 139.508L680.339 142.603L681.112 143.377H682.66L681.886 145.699L683.434 149.568L684.207 151.889V161.948L681.886 167.365L680.339 171.234L679.565 175.103L677.244 176.65ZM655.579 107.783L660.222 96.95L662.543 93.081L663.317 88.4383L664.864 90.7596V93.081L667.185 89.9859L670.28 88.4383L671.054 91.5334L668.733 93.8548L669.506 94.6286L673.375 89.9859L674.923 87.6645L678.017 86.1169L680.339 86.8907L684.207 85.3431L685.755 83.0218L691.171 82.248L695.813 83.7955L698.135 86.1169L699.682 81.4742H703.551L709.741 82.248L712.062 81.4742H714.383H717.478V79.9266L715.93 78.379L714.383 80.7004H711.288L708.967 79.1528L707.419 78.379L705.872 77.6052V76.0577L706.646 73.7363L705.872 70.6411L703.551 72.1887L700.456 73.7363H698.908L698.135 72.9625L695.813 73.7363L691.945 72.9625V67.546L688.85 68.3198L684.207 71.4149L678.791 70.6411L674.149 72.1887L669.506 76.0577L667.959 77.6052L665.638 76.8314L664.09 78.379L661.769 76.0577L657.9 78.379L655.579 77.6052L650.937 71.4149L646.294 70.6411L643.199 71.4149L638.557 74.5101L637.783 69.0936L640.878 65.2246L644.747 61.3557L643.973 60.5819L648.616 59.0343H646.294L641.652 59.8081L637.01 62.9032L635.462 65.2246L633.141 65.9984L631.593 68.3198L630.046 70.6411H627.725L624.63 73.7363L617.666 75.2839L616.119 77.6052L613.798 79.1528L608.381 81.4742L611.476 82.248L613.798 85.3431L632.367 89.2121L635.462 90.7596L639.331 89.9859L643.973 90.7596L646.294 91.5334V93.8548H648.616L650.937 95.4024L652.484 99.2713L650.937 102.366H651.711L654.032 101.593H654.805L653.258 106.235L655.579 107.783Z" fill="#BFDBFE" stroke="#1B2126" stroke-linecap="round" stroke-linejoin="round"/>
<path fill-rule="evenodd" clip-rule="evenodd" d="M892.342 130.996H893.116L903.174 128.675L903.948 129.449L920.196 124.806V125.58L926.386 123.259L927.16 125.58H927.934H928.707V127.901L931.029 128.675L931.802 126.354H932.576V127.901L931.802 129.449L932.576 132.544L933.35 133.318L934.123 131.77L934.897 130.996L935.671 131.77L936.445 130.223V128.675H937.218L938.766 127.127V125.58H940.313L941.087 127.127V129.449H942.635L943.408 127.901L944.182 127.127L946.503 126.354L951.146 124.032V121.711L950.372 120.937L949.598 119.39L948.051 117.068H947.277L948.051 118.616C948.051 118.616 949.837 120.304 950.344 121.149C950.611 121.594 950.372 122.485 950.372 122.485L948.051 123.259L947.277 124.032L946.503 124.806H944.956H941.861L941.087 123.259V120.937L939.54 121.711L937.218 120.937L937.992 118.616L934.897 115.521L933.35 116.294L932.576 117.068L931.029 116.294L930.255 115.521V113.973L931.029 113.199V112.425L932.576 111.652L931.802 110.878V109.33L934.897 108.557L935.671 107.009L934.123 107.783L932.576 107.009L931.802 106.235V104.688H930.255L931.029 103.14H929.481L927.934 103.914C927.934 103.914 927.418 104.946 927.16 105.461H926.386L924.839 108.557L922.517 109.33L906.269 113.199L893.116 115.521L892.342 130.996ZM940.313 133.318V134.865L941.861 133.318L944.956 132.544L942.635 130.996L941.861 132.544L940.313 133.318ZM950.372 132.544L951.146 133.318H952.693L953.467 132.544L952.693 130.996L951.919 132.544H950.372ZM931.028 130.223L930.255 131.77L931.028 134.092L931.802 133.318L931.028 130.223Z" fill="#BFDBFE" stroke="#1B2126" stroke-linecap="round" stroke-linejoin="round"/>
<path fill-rule="evenodd" clip-rule="evenodd" d="M804.91 201.411L807.231 212.244L810.326 209.149L811.873 206.828L812.647 205.28H814.968L817.29 202.959V200.637L818.837 202.959H821.158L822.706 202.185L823.479 199.864H825.801L826.574 198.316L827.348 197.542L830.443 199.09L833.538 198.316L832.764 199.864H833.538L834.312 201.411L835.859 202.185V203.733H838.954L841.275 204.506L840.502 206.828L842.049 208.375H845.144L845.918 209.923H848.239L849.013 208.375L851.334 210.697L850.56 212.244V213.792L849.786 215.339V216.887L848.239 219.208V221.53H849.786V219.208L851.334 219.982L852.108 219.208L853.655 221.53L855.203 222.303L854.429 219.982L855.976 221.53L856.75 223.077L859.071 222.303L860.619 223.077L861.392 223.851L862.94 223.077L864.487 225.399L865.261 223.851L862.94 221.53H862.166L859.845 219.982L858.297 219.208L856.75 216.887V213.792L858.297 216.887L859.845 218.434L862.94 219.982V219.208L859.845 216.113V213.792L858.297 212.244V210.697V208.375L856.75 207.601L858.297 206.828L855.976 206.054L858.297 203.733L855.203 201.411L856.75 200.637L857.524 201.411V199.864L859.071 198.316L858.297 197.542L859.845 196.768L860.619 198.316V195.221L861.392 196.768L862.94 195.995L862.166 194.447L862.94 192.899L864.487 191.352L865.261 193.673L866.809 192.126V193.673L865.261 195.221L867.582 195.995L866.809 196.768L863.714 197.542L862.166 199.864V202.959L863.714 202.185H864.487L863.714 205.28L862.94 206.054H861.392V207.601L864.487 206.054L865.261 207.601L864.487 209.149H866.035L865.261 210.697L864.487 211.47L866.809 213.018L868.356 212.244L869.13 213.792L864.487 214.566L865.261 216.113L864.487 217.661L867.582 218.434L869.13 220.756V218.434H870.677L872.225 216.113V218.434V219.982H872.998L872.225 221.53H873.772L874.546 223.077L873.772 225.399L877.641 224.625L881.509 223.077V220.756L883.057 219.982L882.283 217.661L884.604 216.887V215.339L883.057 213.018L873.772 215.339L866.809 189.031L804.91 201.411Z" fill="#BFDBFE" stroke="#1B2126" stroke-linecap="round" stroke-linejoin="round"/>
<path fill-rule="evenodd" clip-rule="evenodd" d="M928.707 4.09515L921.744 21.8923L922.517 27.3088L920.97 29.6302V31.1778L920.196 33.4991L921.744 34.2729L920.97 35.0467V38.1419H922.517L920.97 41.237V43.5584L918.649 46.6535L917.875 48.9749L919.422 50.5225L918.649 52.0701L917.101 51.2963V52.0701V55.1652L914.78 52.8438L913.233 55.1652L925.612 91.5333V93.8546L928.707 95.4022V97.7236L931.802 99.2712L932.576 95.4022L931.802 92.3071L934.123 90.7595L934.897 89.9857L934.123 86.8905L936.445 86.1168L934.897 83.0216L937.992 79.1527H939.54V81.474L940.313 79.9264L941.861 81.474L942.635 79.9264L938.766 75.2837L942.635 78.3789V74.5099L944.956 78.3789L946.503 72.9623L948.824 74.5099L950.372 72.9623L951.146 69.8672L950.372 64.4507L951.146 62.9031L952.693 60.5817L953.467 62.1293L955.014 64.4507H957.335L958.109 61.3555L960.43 62.1293L961.978 63.6769L963.525 59.0342L961.978 57.4866L965.073 59.0342L967.394 57.4866L969.715 52.8438H971.263L974.358 51.2963L978.226 48.2011L979 45.106L976.679 45.8797V42.7846L973.584 40.4632L972.036 41.237L968.941 39.6894L968.168 38.1419L967.394 35.8205L968.168 33.4991L966.62 32.7253H962.752L961.204 31.9515L960.43 27.3088L952.693 4.86894L948.824 3.32137L946.503 1L943.408 1.77379L941.861 4.09515L938.766 5.64273L935.671 7.19031L933.35 6.41652L932.576 3.32137L928.707 4.09515Z" fill="#BFDBFE" stroke="#1B2126" stroke-linecap="round" stroke-linejoin="round"/>
<path fill-rule="evenodd" clip-rule="evenodd" d="M568.147 376.288L619.987 373.192L622.309 374.74L620.761 377.061L621.535 378.609L622.309 379.383L620.761 380.156L622.309 382.478V384.799L625.403 387.121L623.856 391.763H623.082L623.856 394.858L619.214 398.727L617.666 404.144L616.119 406.465L616.892 409.56L616.119 411.108H614.571L615.345 414.203V417.298L650.163 414.203V415.751L649.389 421.167L650.163 423.489L652.484 425.81L654.032 430.453V431.227H651.71L647.842 430.453L645.521 428.131H642.426L638.557 432.774L639.331 435.095L642.426 435.869L645.521 436.643L650.163 433.548H653.258L652.484 435.095L650.163 435.869L650.937 437.417H652.484L654.032 438.964L655.579 437.417L657.127 434.322L658.674 437.417L659.448 438.964H657.127L655.579 442.06L653.258 441.286L654.032 443.607L652.484 444.381L657.9 448.25L664.09 449.797L667.185 453.666L664.864 455.988L662.543 453.666L661.769 454.44L659.448 452.119L656.353 451.345L655.579 449.797L653.258 450.571L650.937 447.476L646.294 445.929H643.973L644.747 447.476L647.068 449.024V451.345V453.666L645.521 455.988L643.973 454.44V452.893L640.878 451.345L638.557 452.119L637.009 452.893L636.236 455.988L630.82 455.214H628.498L624.63 454.44V452.893L627.725 453.666L626.951 452.119L624.63 449.797L625.403 447.476L624.63 446.702L623.082 449.024L619.987 448.25L619.214 447.476L618.44 445.929L617.666 446.702L616.892 444.381L613.024 445.155V442.833H610.703L607.608 444.381L606.06 445.155L608.381 447.476L605.286 449.797H597.549L590.585 445.929L585.943 445.155L582.848 445.929L576.658 447.476H575.111L574.337 445.929L576.658 445.155V442.833V441.286V439.738L577.432 436.643L575.884 433.548L576.658 432V429.679L578.206 426.584L578.979 424.262V419.62L579.753 418.846L578.979 418.072V415.751L576.658 413.429V411.108L575.111 409.56V408.787L573.563 407.239V404.144L571.242 401.049L568.921 398.727L568.147 376.288Z" fill="#BFDBFE" stroke="#1B2126" stroke-linecap="round" stroke-linejoin="round"/>
<path fill-rule="evenodd" clip-rule="evenodd" d="M644.747 294.266L668.733 291.945V290.397L667.959 288.076H672.601L743.785 281.112L745.332 279.564L753.843 274.921L754.617 272.6L758.486 271.052V269.505L760.033 267.957V265.636L765.449 262.541L770.866 255.577V254.803H768.544L764.676 252.481L761.581 248.613L760.807 247.065L757.712 243.97L758.486 240.875L757.712 238.553L756.165 236.232L753.07 235.458L751.522 231.589L748.427 233.911L747.654 235.458H745.332L744.559 236.232L743.011 234.684H739.916L738.369 237.006L736.821 236.232L734.5 233.911L730.631 234.684L728.31 233.911L727.536 232.363L725.989 229.268H724.442L722.894 227.72L721.347 229.268L719.025 227.72L716.704 230.042L717.478 231.589V233.137L719.025 233.911V236.232H716.704L712.835 238.553L711.288 237.779L708.193 238.553L708.967 242.422L707.419 244.744H705.872V247.839L704.324 248.613H702.777L702.003 251.708V254.803L699.682 256.35L697.361 254.803L695.04 254.029L694.266 252.481L692.718 254.803L691.171 257.898L690.397 260.219L688.85 259.446L686.529 257.898L684.207 258.672L683.434 259.446L681.886 262.541L680.339 260.993L676.47 259.446L674.149 260.993L673.375 259.446V261.767L672.601 262.541L671.828 260.993L670.28 261.767L667.959 260.993V264.088H665.638L664.864 265.636L664.09 267.957L665.638 269.505V271.052L659.448 273.374L658.674 275.695L660.222 278.016L660.995 279.564L659.448 280.338H658.674L653.258 278.016H650.937L649.389 279.564L647.842 281.885L648.616 282.659L647.842 283.433H649.389L648.616 286.528L649.389 288.076L647.842 292.718L645.521 291.171V291.945L644.747 294.266Z" fill="#BFDBFE" stroke="#1B2126" stroke-linecap="round" stroke-linejoin="round"/>
<path fill-rule="evenodd" clip-rule="evenodd" d="M484.82 227.674C464.882 227.948 425.006 227.72 425.006 227.72L423.459 291.945C423.459 291.945 465.328 292.991 486.262 292.74C508.399 292.475 552.672 290.397 552.672 290.397L551.125 243.196L549.578 242.422H547.256L545.709 240.101V238.553L543.388 237.006L541.84 235.458L543.388 233.137L544.161 231.589L545.709 230.815L544.935 228.494L543.388 227.72L541.84 228.494L537.972 226.172C537.972 226.172 502.537 227.432 484.82 227.674Z" fill="#BFDBFE" stroke="#1B2126" stroke-linecap="round" stroke-linejoin="round"/>
<path fill-rule="evenodd" clip-rule="evenodd" d="M529.46 213.018C529.46 213.018 551.634 212.532 562.721 211.902C574.331 211.242 597.549 209.149 597.549 209.149L602.965 213.792L603.739 213.018L602.965 209.923L607.608 206.828V203.733L610.703 200.638L609.929 198.316L606.834 195.221L608.381 190.578L614.571 189.031L619.214 185.936V182.84L621.535 180.519L620.761 174.329L616.119 172.781V170.46L612.25 167.365L610.703 163.496H606.06L603.739 158.853L602.965 153.436L604.513 151.115L602.191 149.567L601.418 147.246L513.986 151.889V153.436L515.533 154.984L514.76 157.305L516.307 158.853L515.533 165.043L513.986 167.365L516.307 172.781H517.854L518.628 176.65V179.745L520.176 180.519L520.949 182.84L522.497 183.614V185.936L524.044 187.483L523.271 192.126L525.592 194.447V196.769L527.913 198.316L526.366 199.09L527.913 200.638V209.923L529.46 211.471V213.018Z" fill="#BFDBFE" stroke="#1B2126" stroke-linecap="round" stroke-linejoin="round"/>
<path fill-rule="evenodd" clip-rule="evenodd" d="M665.638 178.971L667.959 180.519H670.28L677.244 176.65L710.514 172.007V173.555L717.478 229.268L716.704 230.041L717.478 231.589V233.137L719.025 233.91V236.232H716.704L712.835 238.553L711.288 237.779L708.193 238.553L708.967 242.422L707.419 244.743H705.872V247.839L704.324 248.612H702.777L702.003 251.708V254.803L699.682 256.35L697.361 254.803L695.04 254.029L694.266 252.481L692.718 254.803L691.945 256.35L691.171 257.898L690.397 260.219L688.85 259.445L686.529 257.898L684.207 258.672L683.434 259.445L681.886 262.541L680.339 260.993L676.47 259.445L674.149 260.993L673.375 259.445V261.767L672.601 262.541L671.828 260.993L670.28 261.767L667.959 260.993V262.541V264.088H665.638L664.864 261.767L665.638 260.993V257.898L667.185 256.35L665.638 254.803L666.411 253.255L667.959 252.481L669.506 249.386L671.054 247.839V245.517L672.601 243.196V241.648L671.828 239.327V237.779L670.28 235.458L668.733 233.91L670.28 233.137L669.506 230.815L671.054 229.268L665.638 178.971Z" fill="#BFDBFE" stroke="#1B2126" stroke-linecap="round" stroke-linejoin="round"/>
<path fill-rule="evenodd" clip-rule="evenodd" d="M658.674 162.722L612.25 167.365L616.119 170.46V172.781L620.761 174.329L621.535 180.519L619.214 182.84V185.936L614.571 189.031L608.381 190.578L606.834 195.221L609.929 198.316L610.703 200.638L607.608 203.733V206.828L602.965 209.923L603.739 213.018L602.965 213.792L602.191 215.34L601.418 218.435L602.965 223.077L605.286 227.72L609.929 231.589L610.703 233.137L615.345 235.458L616.892 237.779V240.101L618.44 243.97L619.987 245.517L622.309 243.196H625.403L627.725 245.517L626.951 246.291V249.386L624.63 255.577V258.672L630.82 263.314L635.462 265.636H636.236L637.783 267.957L640.878 269.505V272.6L642.426 274.148V274.921L641.652 277.243V278.016L643.973 281.112V282.659L646.294 283.433V281.885L647.842 283.433L648.616 282.659L647.842 281.885L649.389 279.564L650.937 278.016H653.258L658.674 280.338H659.448L660.995 279.564L660.222 278.016L658.674 275.695L659.448 273.374L661.769 272.6L665.638 271.052V269.505L664.09 267.957L664.864 265.636L665.638 264.088L664.864 261.767L665.638 260.993V257.898L667.185 256.35L665.638 254.803L666.411 253.255L667.959 252.481L669.506 249.386L671.054 247.839V245.517L672.601 243.196V241.648L671.828 239.327V237.779L670.28 235.458L668.733 233.91L670.28 233.137L669.506 230.815L671.054 229.268L665.638 178.971L663.316 176.65L662.543 174.329V172.007L660.222 170.46L659.448 168.138L658.674 167.365V162.722Z" fill="#BFDBFE" stroke="#1B2126" stroke-linecap="round" stroke-linejoin="round"/>
<path fill-rule="evenodd" clip-rule="evenodd" d="M276.449 175.876L281.092 122.485L277.223 117.068H275.676L274.128 120.164H269.486L268.712 119.39L261.748 118.616L260.201 120.937L254.785 119.39L253.237 121.711L250.142 118.616L248.595 112.426H246.274L243.953 110.104L244.726 107.009L241.631 100.819L240.084 94.6285L238.536 91.5334L232.347 96.1761L229.252 93.081V88.4382L231.573 87.6644L230.799 81.4741L232.347 80.7003L235.441 71.4149H230.799V69.0935H229.252L226.157 65.9983L226.93 64.4508L221.514 57.4867L219.193 55.9391L216.098 52.0701H216.872L216.098 49.7488L216.872 48.2012L215.324 44.3323L212.229 39.6895L215.324 20.3448L200.623 18.0234L192.112 71.4149L193.66 74.51V76.0576L192.886 76.8314L193.66 81.4741L198.302 85.3431L199.076 89.212L195.207 93.8547L194.434 95.4023L191.339 100.045L190.565 102.366L187.47 105.462L183.601 110.104L182.828 114.747L185.922 115.521L187.47 117.068L185.922 118.616V120.937L184.375 124.033L178.185 162.722L226.93 169.686L276.449 175.876Z" fill="#BFDBFE" stroke="#1B2126" stroke-linecap="round" stroke-linejoin="round"/>
<path fill-rule="evenodd" clip-rule="evenodd" d="M493.869 654.078L495.416 653.304L496.19 650.982L500.059 647.887L503.153 646.34L506.248 645.566L510.117 644.792L513.212 642.471L514.759 639.376L510.891 637.828L510.117 634.733H507.796V631.638L504.701 628.543L496.19 625.447L495.416 626.221L491.547 623.9L490 622.352L487.679 623.9L489.226 626.995L490 628.543L486.905 632.411L484.584 635.507L486.131 638.602L487.679 642.471L488.453 645.566L487.679 650.209L489.226 652.53H492.321L493.869 654.078ZM388.641 580.568L386.32 582.889L384.772 584.437V585.984L385.546 586.758L387.093 584.437L389.415 583.663V581.341L388.641 580.568ZM401.021 575.151L397.152 577.472L395.604 579.794L396.378 582.115H398.699L401.021 584.437H402.568L405.663 583.663L406.437 580.568L407.984 578.246L405.663 575.925L402.568 576.699L401.021 575.151ZM438.934 588.306L442.028 592.174V595.27L445.123 593.722L445.897 596.043L446.671 598.365H444.35L440.481 597.591L438.16 596.043V597.591L436.612 598.365L434.291 596.043L432.744 593.722L431.97 590.627L435.065 591.401L438.934 588.306ZM455.956 599.139L457.503 599.912L459.824 600.686H462.919V599.912L464.467 601.46H469.883L466.788 603.781H463.693L461.372 602.234L456.729 603.008H455.182L454.408 601.46L455.956 600.686V599.139ZM461.372 606.876H463.693L466.788 609.198L464.467 611.519L462.146 610.745V608.424L460.598 607.65L461.372 606.876ZM472.204 614.614L469.109 615.388V616.162L470.657 616.936L472.978 616.162L472.204 614.614ZM473.752 609.972L475.299 611.519V613.841L476.073 615.388L477.62 614.614H479.941L481.489 613.067L483.036 613.841L485.358 611.519V609.972L483.036 608.424L479.168 606.103L476.073 607.65L474.525 606.876L470.657 603.008L469.883 605.329L469.109 606.876L471.43 609.972H473.752Z" fill="#BFDBFE" stroke="#1B2126" stroke-linecap="round" stroke-linejoin="round"/>
<path fill-rule="evenodd" clip-rule="evenodd" d="M760.033 312.837L715.157 319.027L729.084 362.359L732.179 369.323L734.5 372.419V375.514L736.821 376.287L734.5 378.609V382.478L732.953 384.025V387.894L736.047 391.763L735.274 399.501L737.595 401.822L738.369 404.144L739.916 406.465L740.69 409.56L786.34 406.465L790.983 405.691V407.239L792.53 409.56H794.851L795.625 404.918L794.077 404.144V401.049L795.625 399.501L799.494 400.275H804.136L802.589 397.954L804.136 394.858H802.589L803.362 393.311L802.589 391.763V390.989V388.668H804.136V390.989L805.684 387.894L801.815 387.121V385.573L805.684 386.347L804.91 384.799L807.231 382.478L804.91 383.252L803.362 381.704L806.457 380.93L804.91 379.383L805.684 377.835L804.136 377.061H807.231L808.005 375.514L805.684 374.74L806.457 373.192L809.552 373.966V372.419L811.1 370.871L808.778 370.097L807.231 369.323L806.457 370.097L804.91 367.776V364.681L802.589 361.585L801.815 360.038H799.494L798.72 358.49L797.946 355.395L796.399 353.074V351.526L792.53 349.205H790.209V347.657L788.661 346.883V345.336L786.34 344.562V343.015L784.019 340.693H781.698L779.377 336.824L775.508 335.277L774.734 333.729H773.187L772.413 331.408L770.092 329.86L769.318 329.086L768.544 326.765L766.223 325.217V322.896L763.128 323.67L760.807 322.122L760.033 321.348L757.712 320.575L756.165 319.801L757.712 316.706L758.486 315.158L760.033 312.837Z" fill="#BFDBFE" stroke="#1B2126" stroke-linecap="round" stroke-linejoin="round"/>
<path fill-rule="evenodd" clip-rule="evenodd" d="M738.369 404.144L690.397 409.56L689.623 413.429L691.945 415.751L694.266 416.525V419.62L695.039 421.167H696.587L695.039 424.262L695.813 425.036L699.682 420.394L698.908 418.072L701.229 419.62L702.003 418.072H703.551L702.777 419.62L705.098 420.394L703.551 421.167L710.514 420.394L712.062 418.072H713.609L717.478 417.298L719.799 419.62L715.93 420.394L722.12 421.941L726.763 424.262L724.441 421.941L726.763 420.394L727.536 421.941L729.858 419.62L730.631 421.167L728.31 423.489L729.858 424.262H732.179L733.726 425.81L732.179 426.584L729.858 425.81L733.726 428.131L736.047 430.453V432.774H738.369L741.464 431.227L744.558 428.905L745.332 430.453L750.748 425.81H753.843L750.748 424.262L753.843 421.941L756.164 421.167H760.033L763.128 422.715H765.449L768.544 425.81L769.318 427.358L772.413 428.131L773.187 431.227L774.734 432.774L777.055 433.548L778.603 435.869L780.924 437.417H785.566L787.114 441.286L789.435 442.833V445.929L790.209 447.476V455.214L788.661 459.083L790.209 460.631L789.435 466.047L792.53 468.368L793.304 465.273L790.983 463.726L791.756 461.404L794.851 462.952V465.273L796.399 462.952L797.172 464.499L797.946 466.047L794.851 470.69L794.077 473.785L796.399 476.106L797.172 478.428L799.494 481.523L801.041 483.844L803.362 486.166H805.683L802.589 483.07H804.91L808.005 482.297L808.778 483.07L807.231 483.844L808.005 489.261L808.778 491.582L810.326 490.808V489.261L813.421 486.939V488.487L811.873 490.035L810.326 492.356L811.873 493.13L812.647 492.356L814.195 495.451L814.968 499.32L817.289 502.415L823.479 503.963L825.801 505.51V507.058L826.574 507.832L828.895 510.153L830.443 513.248L834.312 514.022L835.859 515.57L834.312 517.117L830.443 514.796V517.117L831.99 518.665L835.859 517.891L836.633 516.343L839.728 517.117L842.049 514.022H844.37L846.691 510.153L845.144 508.605L846.691 503.189L847.465 498.546V494.677V490.035L846.691 489.261V483.07L845.918 478.428L844.37 476.88V475.333L841.275 472.237H839.728L838.954 470.69L841.275 471.464L839.728 468.368L838.954 467.595L835.859 462.178L832.764 457.535L828.895 451.345L825.027 445.929L823.479 440.512L825.027 439.738L825.801 442.833H828.122L821.158 434.322L814.195 425.036L809.552 414.203L808.778 412.656L807.231 409.56L806.457 405.692L804.136 404.144V401.823H805.683V400.275H799.494L795.625 399.501L794.077 401.049V404.144L795.625 404.918L794.851 409.56H792.53L790.983 407.239V405.692L786.34 406.465L740.69 409.56L739.916 406.465L738.369 404.144Z" fill="#BFDBFE" stroke="#1B2126" stroke-linecap="round" stroke-linejoin="round"/>
<path fill-rule="evenodd" clip-rule="evenodd" d="M873.772 215.34L883.057 213.018L884.604 212.244V211.471L883.831 209.923L881.509 210.697L882.283 209.149V207.602L883.831 206.828L882.283 206.054L880.736 205.28L878.415 203.733V202.185L875.32 200.638V197.542L870.677 193.674V191.352L869.903 190.578V189.031L871.451 187.483L872.225 185.162H869.13L867.582 186.709L866.809 189.031L873.772 215.34Z" fill="#BFDBFE" stroke="#1B2126" stroke-linecap="round" stroke-linejoin="round"/>
<path fill-rule="evenodd" clip-rule="evenodd" d="M370.845 204.507C352.036 203.64 307.399 199.864 307.399 199.864L300.435 285.754C300.435 285.754 329.856 288.281 347.275 289.158C370.864 290.344 423.459 291.945 423.459 291.945L425.006 205.28C425.006 205.28 391.238 205.446 370.845 204.507Z" fill="#BFDBFE" stroke="#1B2126" stroke-linecap="round" stroke-linejoin="round"/>
<path fill-rule="evenodd" clip-rule="evenodd" d="M893.115 130.996L895.437 146.472L896.984 148.02L893.889 151.889L895.437 152.662H897.758L901.627 148.02L903.948 147.246L905.495 144.925H907.043L910.911 143.377L914.78 142.603L914.006 141.056L916.328 141.829L917.875 141.056L920.196 140.282L921.744 139.508H923.291V136.413L920.196 124.806L903.948 129.449L903.174 128.675L893.115 130.996Z" fill="#BFDBFE" stroke="#1B2126" stroke-linecap="round" stroke-linejoin="round"/>
<path fill-rule="evenodd" clip-rule="evenodd" d="M129.44 154.984L61.3513 141.056V143.377L59.8038 145.698L61.3513 147.246V154.21L58.2563 160.4V161.948L57.4826 165.043L58.2563 165.817L55.9351 166.591L55.1614 168.138L53.6139 168.912L51.2927 172.781V176.65L54.3877 181.293L55.1614 182.84L57.4826 187.483V194.447L55.1614 198.316L55.9351 200.637L56.7089 206.054L55.1614 206.828L60.5775 216.113L63.6725 219.208V222.303L65.2199 224.625L66.7674 227.72V229.268L64.4462 226.172V227.72L67.5411 232.363H68.3149L70.6361 234.684L72.1835 228.494L74.5048 227.72L77.5997 230.815L79.1472 230.041L80.6946 229.268L81.4684 230.815L83.0158 231.589H85.337L87.6582 232.363L89.9794 234.684H89.2057L86.8845 233.137L85.337 233.91L83.0158 233.137L79.1472 231.589L77.5997 232.363L76.0522 230.815L73.731 232.363V233.137L74.5048 234.684V236.232L76.0522 237.779V240.874V243.196L77.5997 243.97L76.826 244.743L74.5048 243.196L72.1835 240.101V238.553V236.232H70.6361L69.8623 237.779L70.6361 239.327L69.8623 241.648L70.6361 244.743L69.8623 247.839L72.1835 252.481L74.5048 254.803L77.5997 255.576L79.1472 258.672L78.3734 261.767L76.0522 263.314H75.2785V269.505L76.0522 271.052L78.3734 273.374L79.1472 276.469L80.6946 277.242V280.338L82.2421 282.659V284.98L85.337 286.528L86.1108 289.623L89.2057 291.171V293.492L87.6582 295.04L88.432 296.587L91.5269 298.135V300.456L90.7532 303.551V306.646V308.968L89.2057 310.515L91.5269 311.289L92.3006 313.611H97.7168L98.4905 315.158H100.812L102.359 316.706L104.68 317.479L107.002 316.706L111.644 320.575L113.191 324.444L118.608 327.539L120.155 328.313H124.797L127.119 331.408L126.345 335.277L127.892 336.05L129.44 335.277L131.761 336.05L134.856 339.919L139.498 345.336L141.82 347.657L143.367 352.3L144.141 356.169L143.367 359.264L144.141 360.812L145.688 362.359V364.681L189.017 367.776L189.791 367.002L192.112 367.776H192.886L193.66 366.228L194.434 364.681V361.585L191.339 360.812L190.565 359.264L191.339 356.943V352.3H193.66L195.207 349.205L195.981 346.11L196.755 343.015V341.467L198.302 339.919L199.076 338.372L202.171 336.824L204.492 334.503L200.623 330.634L199.85 325.991L198.302 322.896L197.528 321.348V319.027L117.834 217.661L129.44 154.984Z" fill="#BFDBFE" stroke="#1B2126" stroke-linecap="round" stroke-linejoin="round"/>
<path fill-rule="evenodd" clip-rule="evenodd" d="M558.862 363.133L557.315 324.444L553.446 302.004V301.23L631.593 295.813L633.915 298.135V299.682L630.046 305.099L629.272 305.873V307.42L640.104 305.873L641.652 306.647L642.426 307.42H640.104V308.968L640.878 309.742L637.009 312.063L637.783 315.158V316.706H636.236L635.462 319.801L634.688 322.122L636.236 325.217H633.915L632.367 328.313V330.634L630.046 332.182V334.503H627.725V341.467L625.403 343.015V344.562L622.309 347.657L623.856 349.205L623.082 349.979L619.987 351.526L620.761 355.395L618.44 358.49L619.987 360.038L618.44 361.586L619.987 363.133V367.002L621.535 369.323L619.987 370.871V373.192L567.373 376.288V364.681L566.6 363.907H562.731L561.957 364.681L560.41 363.907L558.862 363.133Z" fill="#BFDBFE" stroke="#1B2126" stroke-linecap="round" stroke-linejoin="round"/>
<path fill-rule="evenodd" clip-rule="evenodd" d="M245.534 280.645C263.834 282.606 300.435 285.754 300.435 285.754L290.377 408.787L253.237 405.691L186.696 372.419L187.47 370.097L189.017 367.776L189.791 367.002L192.112 367.776H192.886L194.434 364.681V361.586L191.339 360.812L190.565 359.264L191.339 356.943V352.3H193.66L195.207 349.205L196.755 343.015V341.467L198.302 339.919L199.076 338.372L202.171 336.824L204.492 334.503L200.623 330.634L199.85 325.991L197.528 321.348V315.932L199.076 315.158V312.063L198.302 308.194L199.076 305.873L198.302 302.004L199.076 300.456L198.302 298.135L199.076 295.04L202.171 293.492L204.492 295.04L206.04 294.266L206.813 297.361H209.134L211.456 292.718L213.777 276.469C213.777 276.469 234.948 279.511 245.534 280.645Z" fill="#BFDBFE" stroke="#1B2126" stroke-linecap="round" stroke-linejoin="round"/>
<path fill-rule="evenodd" clip-rule="evenodd" d="M270.259 538.009L251.69 442.06L250.142 442.833L247.047 441.286L244.726 439.738H241.631L238.536 440.512L236.989 441.286H233.894L232.347 440.512H228.478L225.383 439.738L223.062 438.964L220.741 437.417L216.872 438.964L216.098 438.191L213.003 439.738L210.682 438.964V437.417L208.361 436.643L209.908 435.095L206.04 434.322L202.945 435.095H200.623L201.397 433.548L199.85 432L197.528 435.869L195.981 433.548L198.302 432L194.434 429.679L192.112 432L189.017 434.322H184.375L182.054 435.869L179.733 438.191L176.638 439.738L175.09 438.964L171.222 443.607L168.9 446.702L168.127 449.024L165.805 451.345H161.163L157.294 450.571L156.521 454.44L154.973 455.988L158.068 459.857L162.71 464.499L164.258 467.595L163.484 469.916L168.127 472.237H171.995L172.769 473.011L171.222 474.559V476.88H172.769H175.09L177.411 477.654V479.975H175.09L173.543 477.654L170.448 478.428L172.769 479.201L173.543 481.523L171.995 480.749L170.448 483.07L167.353 482.297L165.805 481.523L161.937 480.749L161.163 479.201L163.484 476.106L160.389 475.332L158.068 476.88H155.747L154.199 477.654L154.973 479.201L151.878 478.428L148.01 480.749L143.367 481.523L144.915 484.618L150.331 487.713L148.01 489.261L148.783 491.582L148.01 493.903L151.104 496.225L154.973 496.999L157.294 496.225L161.163 496.999L161.937 498.546L164.258 499.32L165.805 496.999L169.674 495.451L171.995 494.677L173.543 496.999L171.995 499.32H169.674L171.222 501.641L171.995 506.284L170.448 509.379L165.805 510.153L164.258 507.832L163.484 510.153L160.389 512.474H158.842L156.521 510.153L154.199 511.701L151.878 514.022V517.117L149.557 517.891L146.462 521.76V523.307L144.141 524.081L145.688 525.629L144.141 526.403L144.915 528.724L145.688 531.819L147.236 531.045L148.783 533.367L155.747 535.688V537.236L154.199 538.009L152.652 536.462H151.104L148.783 534.914L145.688 537.236L148.783 541.105L151.104 544.973L153.426 546.521L157.294 544.973L159.616 543.426L160.389 540.331V543.426L161.937 548.842L162.71 551.164L161.163 552.711L161.937 555.807L160.389 559.675L162.71 560.449L169.674 555.807L170.448 558.128L172.769 558.902L176.638 563.544L178.185 562.771L177.411 558.902L179.733 556.58V560.449L180.506 561.997L187.47 558.902L189.017 557.354L185.922 561.997L183.601 565.866L185.922 566.64L183.601 567.413V572.056V574.377L182.054 573.604L178.185 576.699L177.411 578.246L176.638 581.342L175.09 580.568L170.448 582.889L165.805 585.984L165.032 588.306L166.579 590.627L164.258 589.853L161.163 587.532L156.521 589.079L152.652 592.948L149.557 594.496L148.01 596.044L144.915 595.27L142.593 596.817L140.272 596.044L138.725 598.365L137.951 599.139L138.725 601.46L141.046 600.686L142.593 599.912L145.688 600.686L148.783 597.591H151.104L152.652 596.044H154.973L158.068 592.948L159.616 591.401L161.163 592.175L159.616 594.496L162.71 592.948V595.27L164.258 596.817L165.032 595.27L164.258 592.948L167.353 591.401L171.222 589.853L175.09 589.079L177.411 585.984L178.959 583.663L183.601 582.115L185.922 579.794L189.017 579.02L189.791 575.925L192.886 572.83L196.755 571.282L198.302 568.187L202.171 567.413L202.945 563.544L206.813 561.223L207.587 559.675L204.492 557.354L202.171 558.128L203.718 554.259L206.04 551.164H208.361L210.682 547.295L209.134 544.973L212.229 543.426L214.551 539.557L216.098 536.462H217.646L219.967 534.14H223.062L226.93 537.236L223.062 538.009L221.514 536.462L218.419 540.331H216.872L217.646 543.426L215.324 547.295V551.164L216.872 551.938L219.193 550.39L214.551 554.259V556.58L218.419 555.807L220.741 554.259L223.062 551.164L228.478 546.521L232.347 547.295L233.894 542.652L231.573 539.557L233.894 534.914L234.668 537.236L238.536 536.462L242.405 537.236L246.274 539.557L242.405 541.878H248.595L250.916 538.783V541.878L255.559 543.426L259.427 542.652L264.07 541.878H267.938L270.259 542.652L274.128 544.2L277.223 541.105L279.544 540.331V543.426L277.997 544.973L284.96 547.295L291.15 550.39L295.019 552.711L297.34 553.485L300.435 551.938L296.566 548.069L299.661 546.521L301.983 550.39L304.304 551.164L305.851 551.938L299.661 541.878L307.399 549.616L308.946 552.711C308.946 552.711 308.121 552.711 307.399 552.711C306.832 552.711 305.078 552.711 305.078 552.711L300.435 553.485L299.661 557.354L302.756 560.449L306.625 564.318L311.267 568.961L315.136 571.282L312.041 564.318L308.172 559.675L312.041 562.771L315.136 558.128L312.041 553.485L315.91 555.033L318.231 558.902L320.552 561.223L316.684 561.997L314.362 564.318L317.457 568.961L319.005 571.282L320.552 568.187L323.647 564.318L324.421 568.961L322.873 574.377L326.742 579.794L329.837 582.889L331.384 579.794L334.479 580.568L332.158 576.699L325.968 570.508V567.413L329.837 571.282L333.706 574.377L337.574 578.246V572.83L341.443 578.246L343.764 572.056L341.443 567.413L340.669 564.318H337.574L330.611 561.997H327.516L324.421 557.354L314.362 548.069L311.267 544.973L307.399 543.426L303.53 540.331L300.435 536.462L295.793 539.557V544.2L291.924 547.295L290.377 544.2L282.639 540.331L280.318 538.783V534.914L276.449 536.462L275.676 538.009H272.581H270.259ZM4.86867 572.83L3.3212 570.508L1 569.735V571.282L2.54747 572.056L4.86867 572.83ZM29.6282 595.27V596.817H31.1756L29.6282 595.27ZM24.9858 591.401L23.4383 592.948L21.8908 594.496L25.7595 593.722L24.9858 591.401ZM30.4019 599.139L32.7231 602.234L33.4968 603.781L31.9494 603.008L29.6282 599.912L30.4019 599.139ZM37.3655 598.365H35.818V599.912L38.1392 599.139L37.3655 598.365ZM52.0665 606.103L50.519 604.555H49.7453L50.519 606.877L52.0665 606.103ZM63.6725 609.198H60.5775L59.8038 606.877L57.4826 608.424L55.9351 609.972H60.5775L63.6725 609.198ZM81.4684 612.293L79.1472 611.519L76.826 610.745L77.5997 608.424H74.5047L72.1835 609.972L66.7674 609.198L69.0886 610.745H73.731L78.3734 612.293H81.4684ZM97.7168 610.746L96.943 612.293H99.2642L97.7168 610.746ZM104.68 609.972H103.133H102.359L103.907 611.519L104.68 609.972ZM116.286 606.103L113.965 606.877V608.424H111.644L110.097 610.745L107.775 612.293L112.418 610.745L113.965 609.198L117.834 608.424L116.286 606.103ZM125.571 603.008H122.476V605.329L121.703 607.65L118.608 608.424L120.155 609.972L124.024 609.198L125.571 606.877L128.666 606.103L127.119 604.555L125.571 603.008ZM132.535 601.46L130.987 603.008L129.44 602.234L130.214 604.555L132.535 603.781L135.63 605.329L137.177 603.781L133.309 603.008L132.535 601.46ZM212.229 561.997L211.456 565.092H215.324L216.098 566.64L212.229 567.413L210.682 568.961H213.003L212.229 572.83H213.777L212.229 575.151L208.361 573.604L211.456 575.925H209.134V577.473L206.813 579.794H205.266L202.945 582.115L203.718 584.437H199.85L202.945 580.568L200.623 579.794L199.85 576.699L199.076 574.377L202.171 572.83L204.492 574.377L202.945 570.508H206.04L206.813 568.187L209.908 565.866L212.229 561.997Z" fill="#BFDBFE" stroke="#1B2126" stroke-linecap="round" stroke-linejoin="round"/>
<path fill-rule="evenodd" clip-rule="evenodd" d="M669.506 324.444L670.28 325.991L671.828 326.765V393.311L676.47 424.262H679.565L681.112 425.81H681.886V421.167L682.66 416.524L685.755 418.846L684.981 421.941L686.529 423.489L689.623 426.584L691.945 425.81L691.171 424.262H692.718L695.04 421.167L694.266 419.62V416.524L691.945 415.751L689.623 413.429L690.397 409.56L738.369 404.144L737.595 401.822L735.274 399.501L736.048 391.763L732.953 387.894V384.025L734.5 382.478V378.609L736.821 376.287L734.5 375.514V372.419L732.179 369.323L729.084 362.359L715.157 319.027L669.506 324.444Z" fill="#BFDBFE" stroke="#1B2126" stroke-linecap="round" stroke-linejoin="round"/>
</svg>
